<svg xmlns="http://www.w3.org/2000/svg" viewBox="0 0 600 500" fill="none">
  <defs>
    <!-- Gradients for AI Core -->
    <linearGradient id="aiCoreGradient" x1="0%" y1="0%" x2="100%" y2="100%">
      <stop offset="0%" style="stop-color:#fab900"/>
      <stop offset="100%" style="stop-color:#ee6500"/>
    </linearGradient>
    
    <linearGradient id="nodeGradient1" x1="0%" y1="0%" x2="100%" y2="100%">
      <stop offset="0%" style="stop-color:#3b82f6"/>
      <stop offset="100%" style="stop-color:#06b6d4"/>
    </linearGradient>
    
    <linearGradient id="nodeGradient2" x1="0%" y1="0%" x2="100%" y2="100%">
      <stop offset="0%" style="stop-color:#8b5cf6"/>
      <stop offset="100%" style="stop-color:#fab900"/>
    </linearGradient>
    
    <linearGradient id="nodeGradient3" x1="0%" y1="0%" x2="100%" y2="100%">
      <stop offset="0%" style="stop-color:#10b981"/>
      <stop offset="100%" style="stop-color:#3b82f6"/>
    </linearGradient>

    <!-- Glow filter -->
    <filter id="glow" x="-50%" y="-50%" width="200%" height="200%">
      <feGaussianBlur stdDeviation="8" result="coloredBlur"/>
      <feMerge>
        <feMergeNode in="coloredBlur"/>
        <feMergeNode in="SourceGraphic"/>
      </feMerge>
    </filter>
    
    <filter id="softGlow" x="-30%" y="-30%" width="160%" height="160%">
      <feGaussianBlur stdDeviation="4" result="blur"/>
      <feMerge>
        <feMergeNode in="blur"/>
        <feMergeNode in="SourceGraphic"/>
      </feMerge>
    </filter>
  </defs>

  <!-- Background glow circles -->
  <circle cx="300" cy="250" r="180" fill="url(#aiCoreGradient)" opacity="0.08"/>
  <circle cx="300" cy="250" r="140" fill="url(#aiCoreGradient)" opacity="0.06"/>

  <!-- Connection lines with animated dashes -->
  <g stroke="#fab900" stroke-width="2" opacity="0.4" stroke-dasharray="8,4">
    <!-- Top connection -->
    <line x1="300" y1="250" x2="300" y2="80">
      <animate attributeName="stroke-dashoffset" from="0" to="24" dur="2s" repeatCount="indefinite"/>
    </line>
    <!-- Top-right connection -->
    <line x1="300" y1="250" x2="480" y2="140">
      <animate attributeName="stroke-dashoffset" from="0" to="24" dur="2s" repeatCount="indefinite"/>
    </line>
    <!-- Bottom-right connection -->
    <line x1="300" y1="250" x2="480" y2="360">
      <animate attributeName="stroke-dashoffset" from="0" to="24" dur="2s" repeatCount="indefinite"/>
    </line>
    <!-- Bottom connection -->
    <line x1="300" y1="250" x2="300" y2="420">
      <animate attributeName="stroke-dashoffset" from="0" to="24" dur="2s" repeatCount="indefinite"/>
    </line>
    <!-- Bottom-left connection -->
    <line x1="300" y1="250" x2="120" y2="360">
      <animate attributeName="stroke-dashoffset" from="0" to="24" dur="2s" repeatCount="indefinite"/>
    </line>
    <!-- Top-left connection -->
    <line x1="300" y1="250" x2="120" y2="140">
      <animate attributeName="stroke-dashoffset" from="0" to="24" dur="2s" repeatCount="indefinite"/>
    </line>
  </g>

  <!-- Central AI Brain/Core -->
  <g filter="url(#glow)">
    <circle cx="300" cy="250" r="60" fill="url(#aiCoreGradient)"/>
    <!-- Brain/AI icon inside -->
    <g fill="white" transform="translate(270, 220)">
      <!-- CPU/Brain pattern -->
      <rect x="10" y="10" width="40" height="40" rx="4" fill="none" stroke="white" stroke-width="2"/>
      <rect x="20" y="20" width="20" height="20" rx="2" fill="white" opacity="0.9"/>
      <!-- Connection pins -->
      <rect x="18" y="2" width="4" height="8" rx="1"/>
      <rect x="38" y="2" width="4" height="8" rx="1"/>
      <rect x="18" y="50" width="4" height="8" rx="1"/>
      <rect x="38" y="50" width="4" height="8" rx="1"/>
      <rect x="2" y="18" width="8" height="4" rx="1"/>
      <rect x="2" y="38" width="8" height="4" rx="1"/>
      <rect x="50" y="18" width="8" height="4" rx="1"/>
      <rect x="50" y="38" width="8" height="4" rx="1"/>
    </g>
  </g>

  <!-- Workflow Node - Top -->
  <g filter="url(#softGlow)" transform="translate(265, 45)">
    <rect width="70" height="70" rx="14" fill="url(#nodeGradient1)"/>
    <!-- Workflow icon -->
    <g fill="white" transform="translate(17, 17)">
      <rect x="0" y="0" width="14" height="14" rx="3"/>
      <rect x="22" y="0" width="14" height="14" rx="3"/>
      <rect x="11" y="22" width="14" height="14" rx="3"/>
      <line x1="7" y1="14" x2="7" y2="22" stroke="white" stroke-width="2"/>
      <line x1="7" y1="22" x2="18" y2="22" stroke="white" stroke-width="2"/>
      <line x1="29" y1="14" x2="29" y2="22" stroke="white" stroke-width="2"/>
      <line x1="18" y1="22" x2="29" y2="22" stroke="white" stroke-width="2"/>
    </g>
  </g>

  <!-- Data/Analytics Node - Top Right -->
  <g filter="url(#softGlow)" transform="translate(445, 105)">
    <rect width="70" height="70" rx="14" fill="url(#nodeGradient2)"/>
    <!-- Chart icon -->
    <g fill="white" transform="translate(15, 15)">
      <rect x="0" y="24" width="8" height="16" rx="2"/>
      <rect x="12" y="14" width="8" height="26" rx="2"/>
      <rect x="24" y="4" width="8" height="36" rx="2"/>
      <rect x="36" y="18" width="8" height="22" rx="2"/>
    </g>
  </g>

  <!-- Automation/Gear Node - Bottom Right -->
  <g filter="url(#softGlow)" transform="translate(445, 325)">
    <rect width="70" height="70" rx="14" fill="url(#nodeGradient3)"/>
    <!-- Gear icon -->
    <g fill="white" transform="translate(15, 15)">
      <circle cx="20" cy="20" r="8" fill="none" stroke="white" stroke-width="4"/>
      <rect x="17" y="0" width="6" height="8" rx="1"/>
      <rect x="17" y="32" width="6" height="8" rx="1"/>
      <rect x="0" y="17" width="8" height="6" rx="1"/>
      <rect x="32" y="17" width="8" height="6" rx="1"/>
      <rect x="4" y="4" width="6" height="6" rx="1" transform="rotate(45, 7, 7)"/>
      <rect x="30" y="4" width="6" height="6" rx="1" transform="rotate(45, 33, 7)"/>
      <rect x="4" y="30" width="6" height="6" rx="1" transform="rotate(45, 7, 33)"/>
      <rect x="30" y="30" width="6" height="6" rx="1" transform="rotate(45, 33, 33)"/>
    </g>
  </g>

  <!-- Cloud/API Node - Bottom -->
  <g filter="url(#softGlow)" transform="translate(265, 385)">
    <rect width="70" height="70" rx="14" fill="url(#nodeGradient1)"/>
    <!-- Cloud icon -->
    <g fill="white" transform="translate(12, 18)">
      <ellipse cx="24" cy="22" rx="22" ry="14"/>
      <ellipse cx="14" cy="18" rx="12" ry="10"/>
      <ellipse cx="34" cy="18" rx="10" ry="8"/>
      <ellipse cx="24" cy="12" rx="14" ry="10"/>
    </g>
  </g>

  <!-- Robot/AI Node - Bottom Left -->
  <g filter="url(#softGlow)" transform="translate(85, 325)">
    <rect width="70" height="70" rx="14" fill="url(#nodeGradient2)"/>
    <!-- Robot icon -->
    <g fill="white" transform="translate(17, 12)">
      <rect x="4" y="14" width="28" height="24" rx="4"/>
      <rect x="10" y="8" width="16" height="8" rx="2"/>
      <circle cx="12" cy="24" r="4"/>
      <circle cx="24" cy="24" r="4"/>
      <rect x="14" y="32" width="8" height="4" rx="1"/>
      <rect x="0" y="20" width="4" height="12" rx="2"/>
      <rect x="32" y="20" width="4" height="12" rx="2"/>
      <line x1="18" y1="4" x2="18" y2="8" stroke="white" stroke-width="2"/>
      <circle cx="18" cy="2" r="3"/>
    </g>
  </g>

  <!-- Code/Integration Node - Top Left -->
  <g filter="url(#softGlow)" transform="translate(85, 105)">
    <rect width="70" height="70" rx="14" fill="url(#nodeGradient3)"/>
    <!-- Code brackets icon -->
    <g stroke="white" stroke-width="3" fill="none" stroke-linecap="round" stroke-linejoin="round" transform="translate(15, 20)">
      <polyline points="12,0 0,15 12,30"/>
      <polyline points="28,0 40,15 28,30"/>
      <line x1="24" y1="0" x2="16" y2="30"/>
    </g>
  </g>

  <!-- Floating data particles -->
  <g fill="#fab900">
    <circle cx="200" cy="180" r="4" opacity="0.6">
      <animate attributeName="cy" values="180;170;180" dur="3s" repeatCount="indefinite"/>
      <animate attributeName="opacity" values="0.6;0.9;0.6" dur="3s" repeatCount="indefinite"/>
    </circle>
    <circle cx="400" cy="200" r="3" opacity="0.5">
      <animate attributeName="cy" values="200;190;200" dur="2.5s" repeatCount="indefinite"/>
      <animate attributeName="opacity" values="0.5;0.8;0.5" dur="2.5s" repeatCount="indefinite"/>
    </circle>
    <circle cx="350" cy="350" r="4" opacity="0.6">
      <animate attributeName="cy" values="350;340;350" dur="3.5s" repeatCount="indefinite"/>
      <animate attributeName="opacity" values="0.6;0.9;0.6" dur="3.5s" repeatCount="indefinite"/>
    </circle>
    <circle cx="250" cy="320" r="3" opacity="0.5">
      <animate attributeName="cy" values="320;310;320" dur="2.8s" repeatCount="indefinite"/>
      <animate attributeName="opacity" values="0.5;0.8;0.5" dur="2.8s" repeatCount="indefinite"/>
    </circle>
    <circle cx="180" cy="280" r="3" opacity="0.4">
      <animate attributeName="cy" values="280;270;280" dur="3.2s" repeatCount="indefinite"/>
      <animate attributeName="opacity" values="0.4;0.7;0.4" dur="3.2s" repeatCount="indefinite"/>
    </circle>
    <circle cx="420" cy="280" r="4" opacity="0.5">
      <animate attributeName="cy" values="280;268;280" dur="2.7s" repeatCount="indefinite"/>
      <animate attributeName="opacity" values="0.5;0.85;0.5" dur="2.7s" repeatCount="indefinite"/>
    </circle>
  </g>
</svg>
