<svg xmlns="http://www.w3.org/2000/svg" xmlns:xlink="http://www.w3.org/1999/xlink" width="1080" viewBox="0 0 810 809.999993" height="1080" preserveAspectRatio="xMidYMid meet"><path fill="#e0e0e0" d="M 330.292969 120.65625 C 318 124.488281 263.480469 142.289062 209.039062 189.527344 C 195.851562 200.972656 142.542969 247.222656 119.765625 309.414062 C 81 415.257812 127.386719 576.289062 261.003906 641.003906 C 416.640625 716.378906 613.234375 623.605469 658.070312 499.4375 C 677.957031 444.371094 678.855469 353.046875 628.757812 292.832031 C 588.441406 244.367188 519.492188 221.339844 522.164062 175.5 C 523.449219 153.421875 540.109375 147.316406 535.484375 133.410156 C 524.53125 100.433594 417.132812 93.589844 330.292969 120.65625 " fill-opacity="1" fill-rule="nonzero"></path><path fill="#1501fc" d="M 202.28125 276.914062 C 220.296875 274.40625 236.9375 286.964844 239.445312 304.960938 C 241.957031 322.953125 229.382812 339.574219 211.367188 342.078125 C 193.351562 344.585938 176.710938 332.03125 174.203125 314.035156 C 171.695312 296.039062 184.265625 279.421875 202.28125 276.914062 Z M 140.386719 312.289062 L 142.152344 324.945312 L 156.078125 326.109375 C 157.011719 328.964844 158.164062 331.710938 159.535156 334.316406 L 150.683594 345.09375 L 158.550781 355.175781 L 171.195312 349.222656 C 173.410156 351.203125 175.785156 353 178.296875 354.582031 L 176.023438 368.359375 L 187.882812 373.160156 L 195.84375 361.714844 C 198.726562 362.320312 201.683594 362.675781 204.691406 362.792969 L 209.617188 375.851562 L 222.289062 374.09375 L 223.457031 360.183594 C 226.316406 359.25 229.0625 358.097656 231.671875 356.730469 L 242.464844 365.566406 L 252.554688 357.714844 L 246.601562 345.082031 C 248.582031 342.867188 250.378906 340.5 251.96875 337.988281 L 265.757812 340.261719 L 270.566406 328.417969 L 259.101562 320.464844 C 259.707031 317.582031 260.070312 314.628906 260.183594 311.628906 L 273.261719 306.707031 L 271.496094 294.050781 L 257.570312 292.886719 C 256.636719 290.027344 255.484375 287.28125 254.113281 284.679688 L 262.964844 273.902344 L 255.101562 263.820312 L 242.453125 269.765625 C 240.238281 267.789062 237.863281 265.996094 235.351562 264.40625 L 237.625 250.632812 L 225.765625 245.832031 L 217.804688 257.28125 C 214.921875 256.675781 211.964844 256.316406 208.957031 256.199219 L 204.03125 243.136719 L 191.359375 244.902344 L 190.191406 258.8125 C 187.332031 259.742188 184.582031 260.898438 181.976562 262.265625 L 171.183594 253.421875 L 161.09375 261.28125 L 167.046875 273.90625 C 165.066406 276.121094 163.269531 278.496094 161.683594 281.003906 L 147.890625 278.738281 L 143.082031 290.578125 L 154.546875 298.53125 C 153.941406 301.410156 153.578125 304.363281 153.464844 307.371094 L 140.386719 312.289062 " fill-opacity="1" fill-rule="nonzero"></path><path fill="#000000" d="M 140.574219 471.109375 C 140.226562 471.109375 139.886719 470.933594 139.695312 470.613281 C 122.335938 441.628906 116.746094 408.097656 122.601562 368.09375 C 122.683594 367.539062 123.199219 367.152344 123.761719 367.234375 C 124.316406 367.3125 124.703125 367.832031 124.621094 368.386719 C 118.832031 407.90625 124.335938 441.003906 141.445312 469.5625 C 141.738281 470.046875 141.578125 470.675781 141.09375 470.960938 C 140.929688 471.0625 140.75 471.109375 140.574219 471.109375 " fill-opacity="1" fill-rule="nonzero"></path><path fill="#000000" d="M 130.015625 466.953125 C 129.730469 466.953125 129.449219 466.839844 129.25 466.605469 C 122.632812 459.058594 117.410156 446.214844 114.535156 430.449219 C 111.960938 416.347656 111.570312 401.21875 113.484375 389.980469 C 113.578125 389.425781 114.109375 389.054688 114.660156 389.144531 C 115.214844 389.242188 115.589844 389.769531 115.492188 390.324219 C 111.625 413.042969 117.339844 449.917969 130.78125 465.261719 C 131.152344 465.683594 131.109375 466.328125 130.6875 466.703125 C 130.492188 466.871094 130.253906 466.953125 130.015625 466.953125 " fill-opacity="1" fill-rule="nonzero"></path><path fill="#000000" d="M 651.8125 402.527344 C 651.757812 402.527344 651.707031 402.527344 651.652344 402.515625 C 651.097656 402.425781 650.71875 401.90625 650.804688 401.347656 L 651.625 396.160156 C 651.710938 395.601562 652.238281 395.222656 652.789062 395.308594 C 653.347656 395.398438 653.726562 395.921875 653.636719 396.476562 L 652.820312 401.664062 C 652.742188 402.171875 652.304688 402.527344 651.8125 402.527344 " fill-opacity="1" fill-rule="nonzero"></path><path fill="#000000" d="M 648.945312 420.695312 C 648.894531 420.695312 648.839844 420.691406 648.789062 420.683594 C 648.230469 420.597656 647.851562 420.070312 647.933594 419.515625 L 648.757812 414.328125 C 648.84375 413.769531 649.371094 413.390625 649.921875 413.480469 C 650.480469 413.566406 650.859375 414.089844 650.769531 414.644531 L 649.953125 419.835938 C 649.875 420.335938 649.441406 420.695312 648.945312 420.695312 " fill-opacity="1" fill-rule="nonzero"></path><path fill="#000000" d="M 644.40625 407.914062 C 644.351562 407.914062 644.292969 407.910156 644.230469 407.898438 L 639.125 407.015625 C 638.566406 406.921875 638.195312 406.390625 638.289062 405.839844 C 638.390625 405.28125 638.914062 404.910156 639.472656 405.007812 L 644.574219 405.890625 C 645.132812 405.984375 645.503906 406.515625 645.410156 407.066406 C 645.324219 407.566406 644.890625 407.914062 644.40625 407.914062 " fill-opacity="1" fill-rule="nonzero"></path><path fill="#000000" d="M 662.28125 411 C 662.226562 411 662.164062 410.996094 662.109375 410.988281 L 657 410.105469 C 656.445312 410.007812 656.074219 409.480469 656.164062 408.925781 C 656.261719 408.371094 656.796875 408 657.347656 408.09375 L 662.457031 408.976562 C 663.011719 409.074219 663.382812 409.597656 663.285156 410.152344 C 663.199219 410.652344 662.773438 411 662.28125 411 " fill-opacity="1" fill-rule="nonzero"></path><path fill="#000000" d="M 128.289062 335.898438 C 127.804688 335.898438 127.316406 335.835938 126.832031 335.714844 C 125.316406 335.324219 124.042969 334.363281 123.25 333.019531 C 122.453125 331.667969 122.230469 330.09375 122.621094 328.578125 C 123.429688 325.449219 126.632812 323.5625 129.765625 324.371094 C 130.3125 324.507812 130.640625 325.066406 130.5 325.613281 C 130.359375 326.160156 129.804688 326.484375 129.257812 326.347656 C 127.21875 325.820312 125.125 327.046875 124.597656 329.089844 C 124.339844 330.074219 124.488281 331.101562 125.003906 331.980469 C 125.523438 332.859375 126.355469 333.480469 127.34375 333.738281 C 128.65625 334.078125 130.0625 333.691406 131.019531 332.722656 C 131.417969 332.328125 132.0625 332.324219 132.460938 332.722656 C 132.859375 333.117188 132.863281 333.761719 132.46875 334.164062 C 131.355469 335.285156 129.839844 335.898438 128.289062 335.898438 " fill-opacity="1" fill-rule="nonzero"></path><path fill="#000000" d="M 499.527344 634.933594 L 247.863281 634.933594 C 237.019531 634.933594 229.339844 626.214844 230.707031 615.457031 L 292.675781 128.371094 C 294.042969 117.613281 303.945312 108.890625 314.789062 108.890625 L 553.820312 106.117188 C 581.257812 106.117188 584.980469 117.613281 583.613281 128.371094 L 521.640625 615.457031 C 520.273438 626.214844 510.378906 634.933594 499.527344 634.933594 " fill-opacity="1" fill-rule="nonzero"></path><path fill="#ffffff" d="M 484.386719 635.953125 L 232.71875 635.953125 C 221.875 635.953125 214.195312 627.171875 215.5625 616.335938 L 277.53125 125.820312 C 278.898438 114.992188 288.800781 106.210938 299.644531 106.210938 L 551.308594 106.210938 C 562.15625 106.210938 569.839844 114.992188 568.46875 125.820312 L 506.5 616.335938 C 505.132812 627.171875 495.234375 635.953125 484.386719 635.953125 " fill-opacity="1" fill-rule="nonzero"></path><path fill="#e0e0e0" d="M 229.90625 617.015625 L 289.074219 148.652344 C 289.390625 146.152344 291.675781 144.125 294.179688 144.125 L 547.199219 144.125 C 549.703125 144.125 551.476562 146.152344 551.160156 148.652344 L 491.988281 617.015625 C 491.675781 619.515625 489.390625 621.542969 486.890625 621.542969 L 233.867188 621.542969 C 231.363281 621.542969 229.589844 619.515625 229.90625 617.015625 " fill-opacity="1" fill-rule="nonzero"></path><path fill="#e0e0e0" d="M 422.328125 131.15625 C 418.261719 131.15625 415.382812 127.863281 415.898438 123.808594 C 416.410156 119.75 420.121094 116.460938 424.183594 116.460938 C 428.246094 116.460938 431.125 119.75 430.609375 123.808594 C 430.097656 127.863281 426.386719 131.15625 422.328125 131.15625 " fill-opacity="1" fill-rule="nonzero"></path><path fill="#000000" d="M 254.308594 418.449219 C 254.265625 418.449219 254.222656 418.445312 254.175781 418.4375 C 253.617188 418.367188 253.222656 417.855469 253.296875 417.296875 L 288.0625 148.523438 C 288.441406 145.535156 291.183594 143.105469 294.179688 143.105469 L 547.199219 143.105469 C 548.703125 143.105469 550.050781 143.695312 550.988281 144.765625 C 551.941406 145.847656 552.363281 147.269531 552.167969 148.78125 L 525.234375 361.996094 C 525.167969 362.554688 524.660156 362.945312 524.09375 362.882812 C 523.539062 362.808594 523.140625 362.300781 523.210938 361.742188 L 550.144531 148.523438 C 550.265625 147.605469 550.023438 146.75 549.464844 146.113281 C 548.910156 145.488281 548.105469 145.144531 547.199219 145.144531 L 294.179688 145.144531 C 292.175781 145.144531 290.339844 146.773438 290.085938 148.78125 L 255.316406 417.558594 C 255.25 418.070312 254.8125 418.449219 254.308594 418.449219 " fill-opacity="1" fill-rule="nonzero"></path><path fill="#000000" d="M 530.121094 430.457031 C 530.082031 430.457031 530.035156 430.457031 529.992188 430.453125 C 529.433594 430.382812 529.039062 429.871094 529.109375 429.3125 L 567.457031 125.695312 C 568.085938 120.730469 566.734375 116.070312 563.664062 112.585938 C 560.617188 109.132812 556.230469 107.230469 551.308594 107.230469 L 299.644531 107.230469 C 289.3125 107.230469 279.84375 115.628906 278.542969 125.953125 L 275.386719 150.007812 C 275.3125 150.566406 274.800781 150.960938 274.242188 150.886719 C 273.683594 150.8125 273.292969 150.300781 273.367188 149.742188 L 276.519531 125.691406 C 277.945312 114.390625 288.320312 105.191406 299.644531 105.191406 L 551.308594 105.191406 C 556.824219 105.191406 561.757812 107.335938 565.191406 111.234375 C 568.65625 115.167969 570.183594 120.394531 569.480469 125.953125 L 531.132812 429.570312 C 531.066406 430.082031 530.628906 430.457031 530.121094 430.457031 " fill-opacity="1" fill-rule="nonzero"></path><path fill="#000000" d="M 261.105469 252.097656 C 261.0625 252.097656 261.015625 252.097656 260.972656 252.089844 C 260.414062 252.019531 260.019531 251.507812 260.09375 250.945312 L 261.976562 236.578125 C 262.050781 236.023438 262.566406 235.628906 263.121094 235.703125 C 263.679688 235.773438 264.074219 236.289062 264 236.84375 L 262.117188 251.214844 C 262.046875 251.726562 261.609375 252.097656 261.105469 252.097656 " fill-opacity="1" fill-rule="nonzero"></path><path fill="#1501fc" d="M 573.546875 527 C 567.476562 528.660156 561.203125 525.085938 559.539062 519.019531 C 557.875 512.945312 561.453125 506.675781 567.523438 505.011719 C 573.601562 503.351562 579.875 506.925781 581.539062 512.996094 C 583.203125 519.066406 579.625 525.335938 573.546875 527 Z M 593.226562 512.089844 L 592.054688 507.820312 L 587.222656 508.039062 C 586.777344 507.101562 586.257812 506.210938 585.671875 505.375 L 588.230469 501.277344 L 585.078125 498.164062 L 581 500.773438 C 580.152344 500.1875 579.257812 499.675781 578.320312 499.242188 L 578.488281 494.410156 L 574.207031 493.285156 L 571.980469 497.578125 C 570.964844 497.496094 569.929688 497.5 568.894531 497.597656 L 566.621094 493.328125 L 562.347656 494.496094 L 562.566406 499.328125 C 561.625 499.777344 560.734375 500.292969 559.902344 500.882812 L 555.800781 498.324219 L 552.6875 501.472656 L 555.292969 505.546875 C 554.710938 506.394531 554.203125 507.289062 553.769531 508.222656 L 548.929688 508.058594 L 547.804688 512.339844 L 552.097656 514.5625 C 552.019531 515.578125 552.023438 516.613281 552.121094 517.648438 L 547.847656 519.921875 L 549.019531 524.191406 L 553.847656 523.972656 C 554.300781 524.910156 554.816406 525.800781 555.40625 526.636719 L 552.847656 530.734375 L 555.992188 533.851562 L 560.070312 531.242188 C 560.921875 531.824219 561.820312 532.335938 562.75 532.769531 L 562.585938 537.605469 L 566.867188 538.722656 L 569.09375 534.4375 C 570.109375 534.515625 571.140625 534.507812 572.179688 534.414062 L 574.457031 538.683594 L 578.722656 537.511719 L 578.507812 532.683594 C 579.449219 532.234375 580.335938 531.71875 581.171875 531.128906 L 585.273438 533.691406 L 588.390625 530.539062 L 585.777344 526.464844 C 586.359375 525.617188 586.875 524.71875 587.308594 523.789062 L 592.144531 523.957031 L 593.265625 519.671875 L 588.976562 517.449219 C 589.058594 516.433594 589.050781 515.398438 588.953125 514.363281 L 593.226562 512.089844 " fill-opacity="1" fill-rule="nonzero"></path><path fill="#1501fc" d="M 465.425781 646.332031 L 242.839844 646.332031 C 239.007812 646.332031 236.121094 643.195312 236.421875 639.363281 L 236.6875 635.980469 C 236.992188 632.148438 240.371094 629.011719 244.207031 629.011719 L 466.789062 629.011719 C 470.625 629.011719 473.511719 632.148438 473.210938 635.980469 L 472.941406 639.363281 C 472.640625 643.195312 469.253906 646.332031 465.425781 646.332031 " fill-opacity="1" fill-rule="nonzero"></path><path fill="#ff6b00" d="M 379.9375 647 L 242.785156 647 C 238.957031 647 236.066406 643.863281 236.367188 640.03125 L 236.636719 636.644531 C 236.9375 632.8125 240.320312 629.679688 244.152344 629.679688 L 381.304688 629.679688 C 385.132812 629.679688 388.023438 632.8125 387.722656 636.644531 L 387.453125 640.03125 C 387.152344 643.863281 383.769531 647 379.9375 647 " fill-opacity="1" fill-rule="nonzero"></path><path fill="#000000" d="M 244.207031 630.03125 C 240.882812 630.03125 237.96875 632.738281 237.703125 636.0625 L 237.4375 639.445312 C 237.316406 641.015625 237.8125 642.492188 238.835938 643.601562 C 239.855469 644.707031 241.277344 645.3125 242.839844 645.3125 L 465.425781 645.3125 C 468.746094 645.3125 471.664062 642.609375 471.921875 639.285156 L 472.191406 635.902344 C 472.316406 634.328125 471.820312 632.851562 470.792969 631.742188 C 469.773438 630.640625 468.351562 630.03125 466.789062 630.03125 Z M 465.425781 647.351562 L 242.839844 647.351562 C 240.703125 647.351562 238.75 646.511719 237.339844 644.988281 C 235.921875 643.453125 235.234375 641.425781 235.40625 639.285156 L 235.671875 635.902344 C 236.015625 631.539062 239.84375 627.992188 244.207031 627.992188 L 466.789062 627.992188 C 468.925781 627.992188 470.882812 628.832031 472.289062 630.359375 C 473.707031 631.890625 474.394531 633.914062 474.226562 636.0625 L 473.957031 639.445312 C 473.617188 643.804688 469.785156 647.351562 465.425781 647.351562 " fill-opacity="1" fill-rule="nonzero"></path><path fill="#1501fc" d="M 427.460938 499.527344 C 420.125 506.941406 413.171875 514.757812 406.722656 522.9375 C 427.785156 537.296875 440.535156 562.265625 438.300781 590.617188 C 437.652344 598.820312 435.796875 606.703125 432.914062 614.199219 L 463.875 614.199219 C 466.128906 606.703125 467.640625 598.714844 468.28125 590.621094 C 471.253906 552.863281 454.859375 519.476562 427.460938 499.527344 " fill-opacity="1" fill-rule="nonzero"></path><path fill="#ff6b00" d="M 366.457031 480.082031 C 305.503906 480.082031 252 529.734375 247.191406 590.6875 C 246.550781 598.785156 246.796875 606.863281 247.867188 614.339844 L 278.828125 614.339844 C 277.128906 606.863281 276.519531 598.894531 277.167969 590.691406 C 280.671875 546.269531 319.664062 510.097656 364.089844 510.097656 C 380.160156 510.097656 394.777344 514.8125 406.722656 522.953125 C 413.171875 514.777344 420.125 506.949219 427.460938 499.535156 C 410.628906 487.277344 389.65625 480.082031 366.457031 480.082031 " fill-opacity="1" fill-rule="nonzero"></path><path fill="#ff6b00" d="M 355.660156 575.929688 L 404.792969 548.453125 L 362.902344 585.425781 Z M 355.660156 575.929688 " fill-opacity="1" fill-rule="nonzero"></path><path fill="#000000" d="M 357.183594 576.246094 L 363.046875 583.933594 L 396.976562 553.992188 Z M 362.902344 586.445312 C 362.871094 586.445312 362.839844 586.441406 362.804688 586.4375 C 362.519531 586.410156 362.265625 586.269531 362.09375 586.042969 L 354.851562 576.546875 C 354.667969 576.3125 354.601562 576.011719 354.660156 575.726562 C 354.71875 575.433594 354.902344 575.1875 355.160156 575.042969 L 404.296875 547.5625 C 404.753906 547.304688 405.324219 547.433594 405.625 547.859375 C 405.925781 548.285156 405.859375 548.871094 405.46875 549.214844 L 363.578125 586.191406 C 363.390625 586.351562 363.152344 586.445312 362.902344 586.445312 " fill-opacity="1" fill-rule="nonzero"></path><path fill="#ff6b00" d="M 367.988281 581.628906 C 367.421875 588.765625 361.179688 594.558594 354.039062 594.558594 C 346.898438 594.558594 341.566406 588.765625 342.128906 581.628906 C 342.695312 574.488281 348.941406 568.699219 356.078125 568.699219 C 363.21875 568.699219 368.546875 574.488281 367.988281 581.628906 " fill-opacity="1" fill-rule="nonzero"></path><path fill="#000000" d="M 356.078125 569.722656 C 349.46875 569.722656 343.667969 575.101562 343.148438 581.707031 C 342.898438 584.882812 343.894531 587.859375 345.957031 590.09375 C 348.011719 592.3125 350.882812 593.539062 354.039062 593.539062 C 360.648438 593.539062 366.449219 588.160156 366.972656 581.546875 C 367.21875 578.375 366.222656 575.394531 364.160156 573.164062 C 362.105469 570.945312 359.238281 569.722656 356.078125 569.722656 Z M 354.039062 595.574219 C 350.304688 595.574219 346.902344 594.121094 344.460938 591.476562 C 342.007812 588.820312 340.820312 585.296875 341.113281 581.546875 C 341.71875 573.902344 348.429688 567.679688 356.078125 567.679688 C 359.8125 567.679688 363.210938 569.136719 365.65625 571.78125 C 368.109375 574.433594 369.296875 577.964844 369 581.707031 C 368.402344 589.355469 361.6875 595.574219 354.039062 595.574219 " fill-opacity="1" fill-rule="nonzero"></path><path fill="#000000" d="M 434.316406 613.664062 L 463.066406 613.664062 C 465.328125 605.503906 466.65625 598.214844 467.246094 590.78125 C 470.089844 554.679688 455.027344 520.90625 426.949219 500.414062 C 426.917969 500.394531 426.886719 500.375 426.859375 500.355469 C 409.5625 487.757812 388.675781 481.101562 366.457031 481.101562 C 306.023438 481.101562 252.972656 530.375 248.191406 590.941406 C 247.585938 598.644531 247.769531 606.476562 248.726562 613.664062 L 277.535156 613.664062 C 276.011719 606.375 275.53125 598.492188 276.136719 590.78125 C 279.6875 545.777344 319.140625 509.164062 364.082031 509.164062 C 379.792969 509.164062 394.652344 513.601562 407.074219 522.007812 C 407.152344 522.035156 407.230469 522.074219 407.300781 522.125 C 429.539062 537.289062 441.5 563.015625 439.296875 590.949219 C 438.707031 598.414062 437.164062 605.472656 434.316406 613.664062 Z M 463.839844 615.703125 L 432.875 615.703125 C 432.542969 615.703125 432.230469 615.539062 432.042969 615.269531 C 431.851562 615 431.804688 614.648438 431.914062 614.339844 C 435.007812 605.742188 436.65625 598.476562 437.265625 590.789062 C 439.402344 563.683594 427.855469 538.71875 406.367188 523.957031 C 406.289062 523.925781 406.210938 523.890625 406.144531 523.839844 C 394.019531 515.570312 379.472656 511.203125 364.082031 511.203125 C 320.179688 511.203125 281.640625 546.972656 278.171875 590.941406 C 277.542969 598.894531 278.105469 607.023438 279.796875 614.457031 C 279.863281 614.757812 279.792969 615.074219 279.601562 615.320312 C 279.40625 615.5625 279.113281 615.703125 278.800781 615.703125 L 247.839844 615.703125 C 247.332031 615.703125 246.902344 615.328125 246.832031 614.828125 C 245.746094 607.261719 245.515625 598.945312 246.160156 590.777344 C 251.019531 529.179688 304.984375 479.0625 366.457031 479.0625 C 389.070312 479.0625 410.34375 485.835938 427.972656 498.644531 C 428.003906 498.660156 428.035156 498.679688 428.0625 498.703125 C 456.777344 519.609375 472.183594 554.09375 469.277344 590.941406 C 468.660156 598.734375 467.246094 606.367188 464.820312 614.957031 C 464.695312 615.398438 464.296875 615.703125 463.839844 615.703125 " fill-opacity="1" fill-rule="nonzero"></path><path fill="#ff6b00" d="M 505.324219 226.265625 L 222.722656 226.265625 C 217.578125 226.265625 214.898438 220.738281 215.71875 215.664062 L 224.628906 165.398438 C 225.285156 161.359375 229.390625 157.40625 233.484375 157.40625 L 516.089844 157.40625 C 521.230469 157.40625 524.535156 162.992188 523.707031 168.066406 L 514.804688 218.332031 C 514.144531 222.371094 509.417969 226.265625 505.324219 226.265625 " fill-opacity="1" fill-rule="nonzero"></path><path fill="#ffffff" d="M 497 225.335938 L 203.242188 225.335938 C 198.097656 225.335938 194.179688 220.734375 195 215.664062 L 203.910156 165.394531 C 204.566406 161.355469 208.054688 158.390625 212.148438 158.390625 L 505.914062 158.390625 C 511.058594 158.390625 514.972656 162.992188 514.152344 168.0625 L 505.242188 218.332031 C 504.589844 222.371094 501.101562 225.335938 497 225.335938 " fill-opacity="1" fill-rule="nonzero"></path><path fill="#000000" d="M 212.148438 159.410156 C 208.539062 159.410156 205.496094 161.996094 204.917969 165.558594 L 196.003906 215.84375 C 195.664062 217.949219 196.265625 220.101562 197.65625 221.738281 C 199.050781 223.378906 201.085938 224.316406 203.242188 224.316406 L 497.003906 224.316406 C 500.617188 224.316406 503.660156 221.730469 504.234375 218.171875 L 513.148438 167.886719 C 513.492188 165.78125 512.890625 163.628906 511.5 161.992188 C 510.101562 160.355469 508.070312 159.410156 505.914062 159.410156 Z M 497.003906 226.355469 L 203.242188 226.355469 C 200.488281 226.355469 197.886719 225.152344 196.101562 223.058594 C 194.324219 220.964844 193.554688 218.210938 193.996094 215.5 L 202.90625 165.21875 C 203.644531 160.679688 207.53125 157.371094 212.148438 157.371094 L 505.914062 157.371094 C 508.664062 157.371094 511.265625 158.574219 513.050781 160.671875 C 514.828125 162.761719 515.597656 165.515625 515.15625 168.226562 L 506.246094 218.511719 C 505.507812 223.050781 501.621094 226.355469 497.003906 226.355469 " fill-opacity="1" fill-rule="nonzero"></path><path fill="#ff6b00" d="M 234.078125 196.347656 C 229.660156 191.9375 229.660156 184.785156 234.078125 180.375 C 238.496094 175.964844 245.652344 175.964844 250.070312 180.375 C 254.484375 184.785156 254.484375 191.9375 250.070312 196.347656 C 245.652344 200.757812 238.496094 200.757812 234.078125 196.347656 Z M 252.722656 177.726562 C 246.839844 171.851562 237.304688 171.851562 231.425781 177.726562 C 225.542969 183.601562 225.542969 193.125 231.425781 198.996094 C 237.304688 204.871094 246.839844 204.871094 252.722656 198.996094 C 258.601562 193.125 258.601562 183.601562 252.722656 177.726562 " fill-opacity="1" fill-rule="nonzero"></path><path fill="#ff6b00" d="M 221.097656 209.28125 C 220.339844 208.515625 220.339844 207.285156 221.097656 206.527344 L 231.320312 196.316406 L 234.078125 199.066406 L 223.851562 209.28125 C 223.09375 210.039062 221.859375 210.039062 221.097656 209.28125 " fill-opacity="1" fill-rule="nonzero"></path><path fill="#1501fc" d="M 398.355469 198.863281 L 288.015625 198.863281 C 282.441406 198.863281 277.925781 194.351562 277.925781 188.789062 C 277.925781 183.222656 282.441406 178.710938 288.015625 178.710938 L 398.355469 178.710938 C 403.929688 178.710938 408.441406 183.222656 408.441406 188.789062 C 408.441406 194.351562 403.929688 198.863281 398.355469 198.863281 " fill-opacity="1" fill-rule="nonzero"></path><path fill="#1501fc" d="M 452.183594 198.707031 L 435.476562 198.707031 C 429.902344 198.707031 425.386719 194.195312 425.386719 188.632812 C 425.386719 183.070312 429.902344 178.558594 435.476562 178.558594 L 452.183594 178.558594 C 457.753906 178.558594 462.269531 183.070312 462.269531 188.632812 C 462.269531 194.195312 457.753906 198.707031 452.183594 198.707031 " fill-opacity="1" fill-rule="nonzero"></path><path fill="#ffffff" d="M 540.589844 477.660156 L 407.984375 477.660156 C 400.464844 477.660156 394.648438 471.082031 395.574219 463.632812 L 419.25 271.148438 C 420.03125 264.890625 425.351562 260.199219 431.660156 260.199219 L 564.261719 260.199219 C 571.78125 260.199219 577.601562 266.777344 576.675781 274.226562 L 552.996094 466.714844 C 552.21875 472.96875 546.898438 477.660156 540.589844 477.660156 " fill-opacity="1" fill-rule="nonzero"></path><path fill="#000000" d="M 431.660156 261.222656 C 425.871094 261.222656 420.972656 265.542969 420.261719 271.273438 L 396.585938 463.757812 C 396.179688 467.015625 397.191406 470.296875 399.367188 472.761719 C 401.542969 475.226562 404.683594 476.640625 407.980469 476.640625 L 540.585938 476.640625 C 546.367188 476.640625 551.269531 472.324219 551.984375 466.589844 L 575.65625 274.109375 C 576.066406 270.847656 575.050781 267.566406 572.875 265.105469 C 570.695312 262.632812 567.554688 261.222656 564.261719 261.222656 Z M 540.585938 478.683594 L 407.980469 478.683594 C 404.105469 478.683594 400.40625 477.015625 397.839844 474.113281 C 395.28125 471.210938 394.082031 467.347656 394.5625 463.507812 L 418.234375 271.023438 C 419.078125 264.273438 424.84375 259.183594 431.660156 259.183594 L 564.261719 259.183594 C 568.140625 259.183594 571.835938 260.847656 574.402344 263.75 C 576.964844 266.652344 578.160156 270.519531 577.683594 274.359375 L 554.007812 466.84375 C 553.167969 473.59375 547.394531 478.683594 540.585938 478.683594 " fill-opacity="1" fill-rule="nonzero"></path><path fill="#e0e0e0" d="M 528.050781 390.640625 C 528.375 388.128906 526.417969 385.90625 523.882812 385.90625 L 436.519531 385.90625 C 434.40625 385.90625 432.621094 387.480469 432.347656 389.574219 C 432.03125 392.082031 433.988281 394.304688 436.519531 394.304688 L 523.882812 394.304688 C 525.996094 394.304688 527.785156 392.734375 528.050781 390.640625 " fill-opacity="1" fill-rule="nonzero"></path><path fill="#e0e0e0" d="M 487.632812 411.8125 C 487.953125 409.304688 485.996094 407.082031 483.460938 407.082031 L 433.816406 407.082031 C 431.699219 407.082031 429.914062 408.652344 429.644531 410.746094 C 429.324219 413.261719 431.285156 415.480469 433.816406 415.480469 L 483.460938 415.480469 C 485.578125 415.480469 487.363281 413.910156 487.632812 411.8125 " fill-opacity="1" fill-rule="nonzero"></path><path fill="#e0e0e0" d="M 497.433594 432.992188 C 497.753906 430.480469 495.796875 428.257812 493.261719 428.257812 L 431.109375 428.257812 C 428.996094 428.257812 427.207031 429.828125 426.9375 431.925781 C 426.617188 434.4375 428.574219 436.65625 431.109375 436.65625 L 493.261719 436.65625 C 495.378906 436.65625 497.164062 435.085938 497.433594 432.992188 " fill-opacity="1" fill-rule="nonzero"></path><path fill="#ffffff" d="M 523.585938 360.519531 L 449.683594 360.519531 C 443.589844 360.519531 438.882812 355.175781 439.660156 349.136719 L 446.238281 298.125 C 446.886719 293.089844 451.179688 289.320312 456.257812 289.320312 L 530.160156 289.320312 C 536.257812 289.320312 540.964844 294.667969 540.1875 300.703125 L 533.609375 351.710938 C 532.960938 356.75 528.671875 360.519531 523.585938 360.519531 " fill-opacity="1" fill-rule="nonzero"></path><path fill="#ff6b00" d="M 440.109375 350.898438 L 441.273438 340.820312 C 441.410156 339.671875 441.929688 338.605469 442.75 337.789062 L 469.929688 310.808594 C 471.921875 308.832031 475.140625 308.835938 477.125 310.820312 L 490.292969 323.953125 C 492.207031 325.859375 495.28125 325.945312 497.296875 324.148438 L 498.257812 323.289062 C 500.34375 321.429688 503.539062 321.589844 505.421875 323.652344 L 531.675781 352.363281 C 532.621094 353.402344 533.101562 354.785156 532.996094 356.183594 C 532.792969 358.859375 525.191406 360.921875 522.503906 360.898438 L 448.300781 360.167969 C 443.351562 360.125 439.535156 355.808594 440.109375 350.898438 " fill-opacity="1" fill-rule="nonzero"></path><path fill="#1501fc" d="M 528.097656 309.425781 C 528.097656 313.6875 524.640625 317.140625 520.371094 317.140625 C 516.105469 317.140625 512.644531 313.6875 512.644531 309.425781 C 512.644531 305.164062 516.105469 301.707031 520.371094 301.707031 C 524.640625 301.707031 528.097656 305.164062 528.097656 309.425781 " fill-opacity="1" fill-rule="nonzero"></path><path fill="#000000" d="M 455.726562 290.335938 C 451.476562 290.335938 447.859375 293.515625 447.316406 297.726562 L 440.585938 349.949219 C 440.277344 352.363281 441.019531 354.789062 442.625 356.617188 C 444.234375 358.449219 446.558594 359.5 448.996094 359.5 L 524.125 359.5 C 528.375 359.5 531.992188 356.324219 532.535156 352.113281 L 539.265625 299.886719 C 539.578125 297.476562 538.835938 295.046875 537.226562 293.214844 C 535.621094 291.386719 533.296875 290.335938 530.855469 290.335938 Z M 524.125 361.539062 L 448.996094 361.539062 C 445.96875 361.539062 443.089844 360.234375 441.09375 357.960938 C 439.097656 355.695312 438.179688 352.679688 438.5625 349.6875 L 445.292969 297.464844 C 445.96875 292.238281 450.453125 288.296875 455.726562 288.296875 L 530.855469 288.296875 C 533.882812 288.296875 536.761719 289.601562 538.757812 291.875 C 540.753906 294.136719 541.671875 297.15625 541.285156 300.148438 L 534.554688 352.371094 C 533.882812 357.597656 529.398438 361.539062 524.125 361.539062 " fill-opacity="1" fill-rule="nonzero"></path><path fill="#ffffff" d="M 135.941406 586.050781 L 150.90625 591.113281 L 153.230469 576.347656 L 134.894531 576.402344 L 135.941406 586.050781 " fill-opacity="1" fill-rule="nonzero"></path><path fill="#000000" d="M 136.882812 585.292969 L 150.089844 589.761719 L 152.039062 577.371094 L 136.03125 577.421875 Z M 150.90625 592.132812 C 150.796875 592.132812 150.6875 592.113281 150.582031 592.078125 L 135.613281 587.015625 C 135.238281 586.890625 134.96875 586.554688 134.925781 586.15625 L 133.878906 576.515625 C 133.847656 576.226562 133.941406 575.941406 134.132812 575.726562 C 134.328125 575.511719 134.601562 575.386719 134.890625 575.382812 L 153.226562 575.332031 C 153.226562 575.332031 153.230469 575.332031 153.230469 575.332031 C 153.527344 575.332031 153.8125 575.460938 154.003906 575.6875 C 154.199219 575.914062 154.285156 576.210938 154.238281 576.507812 L 151.914062 591.273438 C 151.867188 591.566406 151.691406 591.832031 151.433594 591.984375 C 151.273438 592.082031 151.09375 592.132812 150.90625 592.132812 " fill-opacity="1" fill-rule="nonzero"></path><path fill="#000000" d="M 140.800781 621.792969 L 140.328125 645.683594 L 149.304688 641.71875 L 148.378906 636.40625 C 148.351562 636.253906 148.359375 636.089844 148.40625 635.941406 L 152.808594 621.050781 Z M 139.277344 648.28125 C 139.078125 648.28125 138.882812 648.226562 138.710938 648.109375 C 138.421875 647.917969 138.25 647.589844 138.257812 647.242188 L 138.78125 620.816406 C 138.792969 620.285156 139.207031 619.851562 139.738281 619.816406 L 154.136719 618.925781 C 154.476562 618.898438 154.789062 619.050781 154.996094 619.308594 C 155.203125 619.570312 155.269531 619.914062 155.175781 620.234375 L 150.429688 636.292969 L 151.449219 642.152344 C 151.53125 642.613281 151.285156 643.070312 150.855469 643.261719 L 139.6875 648.195312 C 139.558594 648.253906 139.417969 648.28125 139.277344 648.28125 " fill-opacity="1" fill-rule="nonzero"></path><path fill="#ff6b00" d="M 125.925781 573.925781 C 125.925781 573.925781 111.207031 591.832031 106.847656 606.46875 C 106.113281 608.9375 108.203125 611.328125 110.757812 610.976562 C 112.230469 610.773438 114.136719 610.367188 116.589844 609.636719 C 125.761719 606.910156 144.777344 589 144.777344 589 L 144.335938 585.035156 C 144.183594 583.640625 142.859375 582.691406 141.488281 582.980469 L 139.640625 583.378906 L 141.433594 577.566406 C 141.839844 576.238281 141.058594 574.839844 139.71875 574.503906 C 136.984375 573.816406 132.109375 573.042969 125.925781 573.925781 " fill-opacity="1" fill-rule="nonzero"></path><path fill="#000000" d="M 110.441406 609.742188 C 110.28125 609.742188 110.113281 609.710938 109.957031 609.652344 C 109.253906 609.382812 108.902344 608.597656 109.171875 607.894531 C 115.164062 592.203125 127.660156 576.050781 128.191406 575.375 C 128.652344 574.78125 129.503906 574.671875 130.097656 575.132812 C 130.691406 575.59375 130.796875 576.449219 130.335938 577.042969 C 130.210938 577.207031 117.554688 593.558594 111.710938 608.867188 C 111.503906 609.410156 110.988281 609.742188 110.441406 609.742188 " fill-opacity="1" fill-rule="nonzero"></path><path fill="#000000" d="M 127.542969 603.292969 C 127.175781 603.292969 126.804688 603.144531 126.539062 602.847656 L 122.167969 598.074219 C 121.664062 597.519531 121.703125 596.660156 122.257812 596.152344 C 122.808594 595.644531 123.667969 595.6875 124.175781 596.238281 L 128.546875 601.015625 C 129.050781 601.566406 129.011719 602.429688 128.457031 602.933594 C 128.199219 603.175781 127.871094 603.292969 127.542969 603.292969 " fill-opacity="1" fill-rule="nonzero"></path><path fill="#000000" d="M 132.992188 598.136719 C 132.625 598.136719 132.257812 597.988281 131.988281 597.695312 L 126.5 591.691406 C 125.992188 591.140625 126.03125 590.277344 126.585938 589.773438 C 127.140625 589.265625 128 589.304688 128.507812 589.859375 L 133.996094 595.859375 C 134.503906 596.414062 134.464844 597.273438 133.910156 597.78125 C 133.648438 598.019531 133.320312 598.136719 132.992188 598.136719 " fill-opacity="1" fill-rule="nonzero"></path><path fill="#ff6b00" d="M 138.226562 634.515625 C 136.097656 636.210938 130.859375 640.558594 127.148438 645.035156 C 125.359375 647.195312 125.902344 650.445312 128.320312 651.871094 C 135.761719 656.253906 152.308594 665.03125 170.046875 667.960938 C 172.667969 668.394531 174.753906 665.832031 173.871094 663.324219 C 172.234375 658.6875 167.421875 651.230469 153.785156 641.980469 L 149.238281 639.003906 L 141.222656 642.035156 C 141.222656 642.035156 142.226562 637.238281 140.640625 634.886719 C 140.097656 634.082031 138.984375 633.910156 138.226562 634.515625 " fill-opacity="1" fill-rule="nonzero"></path><path fill="#000000" d="M 170.296875 665.066406 C 170.199219 665.066406 170.097656 665.058594 169.996094 665.03125 C 152.085938 660.960938 129.757812 648.6875 128.820312 648.167969 C 128.160156 647.804688 127.921875 646.976562 128.285156 646.316406 C 128.648438 645.660156 129.476562 645.425781 130.132812 645.789062 C 130.363281 645.914062 153.070312 658.394531 170.597656 662.382812 C 171.332031 662.550781 171.789062 663.277344 171.621094 664.011719 C 171.480469 664.640625 170.917969 665.066406 170.296875 665.066406 " fill-opacity="1" fill-rule="nonzero"></path><path fill="#000000" d="M 149.078125 650.800781 C 148.691406 650.800781 148.308594 650.636719 148.042969 650.324219 C 147.554688 649.753906 147.625 648.894531 148.195312 648.40625 L 154.535156 642.996094 C 155.105469 642.507812 155.964844 642.578125 156.453125 643.148438 C 156.9375 643.714844 156.871094 644.578125 156.300781 645.0625 L 149.960938 650.476562 C 149.703125 650.691406 149.390625 650.800781 149.078125 650.800781 " fill-opacity="1" fill-rule="nonzero"></path><path fill="#000000" d="M 156.390625 653.753906 C 156.007812 653.753906 155.625 653.59375 155.355469 653.277344 C 154.867188 652.707031 154.933594 651.847656 155.503906 651.363281 L 160.0625 647.46875 C 160.632812 646.976562 161.492188 647.042969 161.980469 647.613281 C 162.464844 648.1875 162.402344 649.046875 161.828125 649.535156 L 157.273438 653.429688 C 157.015625 653.648438 156.703125 653.753906 156.390625 653.753906 " fill-opacity="1" fill-rule="nonzero"></path><path fill="#000000" d="M 216.84375 480.664062 C 216.84375 480.664062 236.414062 529.089844 230.476562 561.910156 C 224.535156 594.730469 168.5 598.519531 148.960938 592.664062 L 150.886719 573.328125 C 150.886719 573.328125 177.394531 579.363281 193.269531 560.910156 C 209.144531 542.453125 174.359375 516.789062 174.359375 516.789062 L 169.707031 482.589844 L 216.84375 480.664062 " fill-opacity="1" fill-rule="nonzero"></path><path fill="#000000" d="M 161.964844 474.402344 C 161.964844 474.402344 160.386719 483.382812 160.382812 494.78125 C 160.378906 505.882812 158.144531 516.859375 153.929688 527.132812 C 146.046875 546.34375 134.53125 584.660156 138.085938 627.988281 L 154.207031 626.992188 C 154.207031 626.992188 190.148438 530.097656 200.046875 511.605469 C 209.949219 493.117188 215.445312 478.796875 215.445312 478.796875 L 161.964844 474.402344 " fill-opacity="1" fill-rule="nonzero"></path><path fill="#e0e0e0" d="M 167.078125 596.148438 C 166.953125 596.148438 166.832031 596.128906 166.714844 596.082031 C 166.1875 595.878906 165.921875 595.289062 166.125 594.765625 L 172.613281 577.804688 C 172.8125 577.277344 173.402344 577.015625 173.929688 577.21875 C 174.457031 577.417969 174.71875 578.007812 174.515625 578.535156 L 168.03125 595.496094 C 167.875 595.902344 167.488281 596.148438 167.078125 596.148438 " fill-opacity="1" fill-rule="nonzero"></path><path fill="#e0e0e0" d="M 191.132812 534.652344 C 191.011719 534.652344 190.890625 534.628906 190.769531 534.582031 C 190.242188 534.382812 189.980469 533.789062 190.179688 533.265625 L 193.839844 523.707031 C 194.039062 523.179688 194.628906 522.917969 195.15625 523.117188 C 195.679688 523.320312 195.945312 523.910156 195.742188 524.4375 L 192.085938 533.992188 C 191.929688 534.402344 191.542969 534.652344 191.132812 534.652344 " fill-opacity="1" fill-rule="nonzero"></path><path fill="#e0e0e0" d="M 159.566406 497.179688 C 159.5625 497.179688 159.558594 497.179688 159.554688 497.179688 C 158.992188 497.175781 158.539062 496.710938 158.542969 496.152344 L 158.597656 491.066406 C 158.601562 490.507812 159.058594 490.058594 159.617188 490.058594 C 159.617188 490.058594 159.621094 490.058594 159.628906 490.058594 C 160.191406 490.0625 160.640625 490.527344 160.636719 491.085938 L 160.585938 496.171875 C 160.578125 496.730469 160.125 497.179688 159.566406 497.179688 " fill-opacity="1" fill-rule="nonzero"></path><path fill="#ffffff" d="M 279.089844 358.292969 C 279.089844 358.292969 282.335938 351.988281 282.046875 350.207031 C 281.6875 347.960938 279.847656 342.980469 281.5 339.527344 C 283.644531 335.050781 288.335938 332.519531 289.132812 333.492188 C 289.929688 334.464844 283.902344 342.917969 287.210938 346.503906 C 287.210938 346.503906 289.316406 346.605469 292.632812 341.957031 C 292.996094 341.449219 293.773438 341.59375 294 342.207031 C 294.320312 343.046875 294.207031 345.703125 293.671875 347.675781 C 292.992188 350.199219 291.289062 351.621094 289.480469 353.21875 C 288.414062 354.15625 287.40625 361.910156 287.140625 361.796875 L 279.089844 358.292969 " fill-opacity="1" fill-rule="nonzero"></path><path fill="#000000" d="M 280.484375 357.785156 L 286.476562 360.394531 C 286.542969 360.0625 286.617188 359.679688 286.6875 359.316406 C 287.503906 355.144531 288.003906 353.160156 288.804688 352.453125 L 289.019531 352.265625 C 290.679688 350.796875 292.117188 349.535156 292.691406 347.410156 C 293.121094 345.8125 293.210938 343.921875 293.128906 343.007812 C 289.84375 347.414062 287.582031 347.554688 287.160156 347.523438 L 286.746094 347.503906 L 286.460938 347.195312 C 283.808594 344.320312 285.917969 339.375 287.316406 336.105469 C 287.554688 335.546875 287.828125 334.898438 288.003906 334.414062 C 286.667969 334.890625 283.914062 336.851562 282.421875 339.96875 C 281.269531 342.375 282.109375 345.910156 282.667969 348.242188 C 282.832031 348.941406 282.972656 349.539062 283.054688 350.042969 C 283.320312 351.695312 281.53125 355.65625 280.484375 357.785156 Z M 287.1875 362.925781 L 277.683594 358.789062 L 278.179688 357.824219 C 279.675781 354.925781 281.179688 351.234375 281.042969 350.367188 C 280.972656 349.9375 280.835938 349.371094 280.683594 348.71875 C 280.058594 346.097656 279.117188 342.148438 280.582031 339.085938 C 282.527344 335.015625 286.277344 332.523438 288.234375 332.285156 C 289.203125 332.164062 289.707031 332.585938 289.921875 332.84375 C 290.578125 333.648438 290.117188 334.734375 289.191406 336.90625 C 288.085938 339.492188 286.460938 343.308594 287.632812 345.367188 C 288.289062 345.09375 289.769531 344.214844 291.804688 341.367188 C 292.179688 340.835938 292.816406 340.558594 293.460938 340.644531 C 294.136719 340.734375 294.710938 341.191406 294.957031 341.84375 C 295.417969 343.074219 295.171875 346.042969 294.660156 347.941406 C 293.925781 350.660156 292.117188 352.253906 290.367188 353.792969 L 290.152344 353.980469 C 289.699219 354.542969 288.992188 358.164062 288.691406 359.707031 C 288.210938 362.164062 288.160156 362.421875 287.625 362.703125 L 287.1875 362.925781 " fill-opacity="1" fill-rule="nonzero"></path><path fill="#ff6b00" d="M 160.625 437.808594 C 162.261719 416.890625 161.257812 392.683594 191.164062 379.613281 C 191.289062 379.558594 191.433594 379.347656 191.703125 379.261719 C 201.472656 376.136719 202.015625 377.308594 208.859375 377.195312 C 215.183594 377.097656 216.546875 376.835938 225.898438 381.445312 C 238.964844 382.261719 252.136719 378.558594 262.945312 370.386719 C 269.394531 365.515625 273.539062 362.390625 279.082031 353.136719 L 290.882812 357.773438 C 290.882812 357.773438 280.472656 419.179688 221.949219 413.460938 C 221.949219 413.460938 214.902344 456.613281 221.195312 485.507812 C 221.195312 485.507812 166.144531 503.46875 150.867188 476.625 C 150.867188 476.625 158.9375 459.339844 160.625 437.808594 " fill-opacity="1" fill-rule="nonzero"></path><path fill="#000000" d="M 213.710938 454.699219 C 213.605469 454.699219 213.5 454.683594 213.394531 454.644531 C 199.839844 450.195312 193.359375 441.425781 194.128906 428.585938 C 194.164062 428.023438 194.660156 427.59375 195.210938 427.628906 C 195.773438 427.664062 196.199219 428.148438 196.167969 428.707031 C 195.445312 440.675781 201.289062 448.527344 214.027344 452.710938 C 214.566406 452.882812 214.855469 453.460938 214.679688 453.996094 C 214.539062 454.421875 214.140625 454.699219 213.710938 454.699219 " fill-opacity="1" fill-rule="nonzero"></path><path fill="#ffffff" d="M 196.601562 379.042969 L 196.890625 361.230469 L 209.960938 367.5 L 210.066406 378.753906 C 210.027344 381.261719 207.925781 382.707031 207.925781 382.707031 C 205.328125 384.707031 201.617188 384.433594 198.886719 382.625 L 198.253906 382.207031 C 197.195312 381.503906 196.570312 380.308594 196.601562 379.042969 " fill-opacity="1" fill-rule="nonzero"></path><path fill="#000000" d="M 196.601562 379.039062 L 196.609375 379.039062 Z M 197.882812 362.839844 L 197.621094 379.058594 C 197.621094 379.0625 197.621094 379.066406 197.621094 379.066406 C 197.597656 379.992188 198.042969 380.847656 198.816406 381.355469 L 199.449219 381.777344 C 201.984375 383.457031 205.214844 383.503906 207.304688 381.898438 C 207.359375 381.859375 209.015625 380.667969 209.046875 378.734375 L 208.945312 368.148438 Z M 203.667969 385.132812 C 201.867188 385.132812 199.992188 384.578125 198.324219 383.476562 L 197.691406 383.058594 C 196.332031 382.160156 195.542969 380.648438 195.582031 379.023438 L 195.871094 361.214844 C 195.875 360.867188 196.058594 360.546875 196.355469 360.363281 C 196.652344 360.183594 197.019531 360.160156 197.332031 360.3125 L 210.398438 366.582031 C 210.75 366.753906 210.976562 367.105469 210.980469 367.492188 L 211.085938 378.742188 C 211.039062 381.769531 208.609375 383.476562 208.503906 383.546875 C 207.132812 384.601562 205.4375 385.132812 203.667969 385.132812 " fill-opacity="1" fill-rule="nonzero"></path><path fill="#000000" d="M 215.230469 340.4375 C 211.777344 340.3125 216.191406 343.746094 203.351562 340.324219 C 198.238281 338.964844 200.9375 344.800781 199.609375 344.449219 C 194.707031 343.15625 194.875 343.199219 192.511719 343.867188 C 190.945312 344.3125 189.988281 347.222656 190.328125 349.371094 C 190.785156 352.203125 193.160156 352.886719 195.386719 358.851562 C 196.949219 363.039062 196.644531 365.613281 198.359375 366.1875 C 200.09375 366.773438 201.316406 364.453125 203.257812 364.945312 C 205.773438 365.589844 205.375 369.902344 207.847656 371.632812 C 209.40625 372.722656 212.988281 373.167969 218.648438 370.273438 C 219.566406 369.804688 220.019531 368.75 219.722656 367.761719 C 219.34375 366.5 218.855469 364.90625 218.261719 363.421875 C 215.433594 356.355469 212.84375 354.796875 213.726562 352.929688 C 215.082031 350.070312 220.507812 351.574219 221.347656 349.230469 C 222.21875 346.796875 219.960938 340.605469 215.230469 340.4375 " fill-opacity="1" fill-rule="nonzero"></path><path fill="#ffffff" d="M 203.460938 352.976562 L 204.488281 354.785156 C 204.972656 355.640625 205.398438 356.523438 205.757812 357.433594 C 206.4375 359.140625 207.714844 362.03125 208.414062 363.660156 C 210.667969 368.90625 217.089844 362.945312 217.089844 362.945312 L 217.511719 361.480469 L 218.386719 361.105469 C 218.554688 361.03125 218.707031 360.921875 218.816406 360.777344 C 219.09375 360.410156 219.085938 359.929688 218.835938 359.578125 C 217.476562 357.679688 214.636719 353.402344 213.566406 349.53125 C 213.566406 349.53125 207.910156 348.210938 203.460938 352.976562 " fill-opacity="1" fill-rule="nonzero"></path><path fill="#000000" d="M 202.449219 352.855469 C 202.542969 352.652344 202.664062 352.429688 202.8125 352.226562 C 202.886719 352.125 202.96875 352.023438 203.050781 351.933594 L 203.171875 351.804688 L 203.242188 351.742188 C 203.425781 351.566406 203.601562 351.390625 203.796875 351.226562 C 204.171875 350.890625 204.582031 350.589844 205 350.300781 C 205.851562 349.746094 206.769531 349.285156 207.734375 348.957031 C 208.695312 348.625 209.699219 348.4375 210.707031 348.363281 C 211.210938 348.328125 211.71875 348.320312 212.226562 348.347656 C 212.746094 348.375 213.210938 348.410156 213.792969 348.542969 L 213.808594 348.546875 C 214.179688 348.628906 214.453125 348.914062 214.542969 349.261719 C 214.8125 350.328125 215.214844 351.394531 215.664062 352.445312 C 216.109375 353.503906 216.617188 354.542969 217.175781 355.5625 C 217.730469 356.582031 218.339844 357.578125 218.996094 358.542969 L 219.242188 358.902344 L 219.363281 359.082031 L 219.429688 359.175781 C 219.464844 359.230469 219.5 359.285156 219.527344 359.339844 C 219.773438 359.785156 219.792969 360.332031 219.621094 360.804688 C 219.542969 361.046875 219.417969 361.269531 219.230469 361.480469 C 219.066406 361.675781 218.808594 361.851562 218.671875 361.9375 C 218.429688 362.113281 218.179688 362.28125 217.914062 362.410156 L 218.488281 361.761719 L 218.078125 363.234375 C 218.027344 363.417969 217.921875 363.582031 217.789062 363.703125 C 217.023438 364.394531 216.265625 364.960938 215.410156 365.5 C 214.558594 366.019531 213.640625 366.484375 212.5625 366.742188 C 212.023438 366.867188 211.4375 366.933594 210.820312 366.863281 C 210.207031 366.796875 209.566406 366.570312 209.035156 366.203125 C 208.503906 365.832031 208.09375 365.351562 207.804688 364.855469 C 207.640625 364.609375 207.542969 364.355469 207.414062 364.105469 L 207.140625 363.46875 C 206.410156 361.769531 205.660156 360.078125 204.953125 358.339844 C 204.613281 357.449219 204.296875 356.6875 203.886719 355.890625 L 203.574219 355.304688 C 203.429688 355.046875 203.285156 354.777344 203.152344 354.503906 C 202.882812 353.953125 202.652344 353.394531 202.449219 352.855469 Z M 204.472656 353.097656 C 204.726562 353.367188 204.953125 353.613281 205.140625 353.867188 C 205.234375 353.996094 205.320312 354.128906 205.40625 354.269531 L 205.757812 354.90625 C 206.21875 355.742188 206.628906 356.6875 206.964844 357.519531 C 207.664062 359.203125 208.410156 360.898438 209.148438 362.597656 C 209.824219 364.378906 210.546875 364.976562 212.089844 364.65625 C 213.558594 364.320312 215.128906 363.277344 216.386719 362.191406 L 216.097656 362.660156 L 216.535156 361.195312 L 216.550781 361.144531 C 216.636719 360.859375 216.851562 360.644531 217.109375 360.546875 C 217.386719 360.441406 217.679688 360.375 217.976562 360.320312 C 218.195312 360.296875 218.191406 360.363281 218.28125 360.273438 C 218.335938 360.199219 218.308594 360.097656 218.269531 360.027344 L 217.796875 359.367188 C 217.109375 358.386719 216.445312 357.390625 215.792969 356.378906 C 214.511719 354.339844 213.320312 352.210938 212.585938 349.800781 L 213.335938 350.515625 C 213.007812 350.460938 212.546875 350.410156 212.140625 350.402344 C 211.71875 350.386719 211.296875 350.402344 210.878906 350.4375 C 210.035156 350.511719 209.207031 350.699219 208.414062 350.964844 C 207.617188 351.230469 206.863281 351.605469 206.160156 352.0625 C 205.808594 352.296875 205.460938 352.535156 205.140625 352.808594 C 204.972656 352.9375 204.820312 353.085938 204.664062 353.226562 L 204.601562 353.277344 C 204.59375 353.289062 204.601562 353.277344 204.601562 353.277344 C 204.605469 353.269531 204.601562 353.253906 204.597656 353.234375 C 204.582031 353.191406 204.542969 353.136719 204.472656 353.097656 " fill-opacity="1" fill-rule="nonzero"></path><path fill="#ffffff" d="M 204.996094 359.339844 C 204.996094 359.339844 202.53125 354.984375 200.785156 356.523438 C 199.039062 358.0625 201.875 362.785156 204.996094 359.339844 " fill-opacity="1" fill-rule="nonzero"></path><path fill="#000000" d="M 213.859375 355.085938 C 213.722656 355.085938 213.640625 355.144531 213.617188 355.164062 C 212.945312 357.027344 213.492188 358.28125 213.78125 358.589844 C 213.996094 358.582031 214.070312 358.503906 214.105469 358.46875 C 214.214844 358.355469 214.558594 357.871094 214.429688 356.238281 C 214.359375 355.417969 214.175781 355.167969 214.117188 355.144531 C 214.015625 355.101562 213.929688 355.085938 213.859375 355.085938 Z M 213.722656 360.632812 C 213.648438 360.632812 213.578125 360.628906 213.503906 360.625 C 212.9375 360.585938 212.398438 360.21875 211.988281 359.585938 C 211.324219 358.566406 210.90625 356.675781 211.726562 354.417969 C 211.910156 353.921875 212.320312 353.496094 212.855469 353.261719 C 213.480469 352.980469 214.199219 352.976562 214.875 353.25 C 216.277344 353.8125 216.414062 355.515625 216.460938 356.074219 C 216.605469 357.882812 216.3125 359.136719 215.558594 359.902344 C 215.082031 360.378906 214.453125 360.632812 213.722656 360.632812 " fill-opacity="1" fill-rule="nonzero"></path><path fill="#000000" d="M 202.773438 356.695312 C 202.277344 356.695312 201.84375 356.328125 201.769531 355.824219 C 201.683594 355.269531 202.070312 354.75 202.625 354.664062 L 213.382812 353.070312 C 213.945312 352.980469 214.457031 353.371094 214.539062 353.925781 C 214.625 354.484375 214.238281 355 213.683594 355.082031 L 202.925781 356.683594 C 202.875 356.691406 202.824219 356.695312 202.773438 356.695312 " fill-opacity="1" fill-rule="nonzero"></path><path fill="#000000" d="M 218.015625 357.476562 Z M 217.78125 357.65625 Z M 218.464844 359.414062 C 218.085938 359.414062 217.726562 359.203125 217.550781 358.839844 C 217.339844 358.410156 217.457031 357.90625 217.808594 357.613281 C 218.015625 357.234375 218.414062 355.691406 217.773438 354.648438 C 217.742188 354.597656 217.71875 354.582031 217.71875 354.582031 C 217.566406 354.519531 216.945312 354.769531 216.507812 355.128906 C 216.070312 355.480469 215.425781 355.417969 215.074219 354.984375 C 214.71875 354.546875 214.777344 353.90625 215.210938 353.550781 C 215.457031 353.347656 216.746094 352.351562 218.046875 352.570312 C 218.660156 352.671875 219.167969 353.019531 219.511719 353.582031 C 220.535156 355.246094 220.085938 357.207031 219.921875 357.769531 C 219.566406 358.988281 219.074219 359.230469 218.914062 359.308594 C 218.769531 359.378906 218.617188 359.414062 218.464844 359.414062 " fill-opacity="1" fill-rule="nonzero"></path><path fill="#ffffff" d="M 370.875 419.238281 L 239.683594 419.238281 C 233.101562 419.238281 228 413.492188 228.78125 406.964844 L 244.921875 272.34375 C 245.582031 266.828125 250.265625 262.679688 255.824219 262.679688 L 387.015625 262.679688 C 393.597656 262.679688 398.699219 268.421875 397.917969 274.949219 L 381.777344 409.574219 C 381.117188 415.089844 376.433594 419.238281 370.875 419.238281 " fill-opacity="1" fill-rule="nonzero"></path><path fill="#ff6b00" d="M 371.296875 301.164062 L 319.902344 301.164062 C 318.585938 301.164062 317.523438 300.101562 317.523438 298.785156 C 317.523438 297.472656 318.585938 296.40625 319.902344 296.40625 L 371.296875 296.40625 C 372.609375 296.40625 373.675781 297.472656 373.675781 298.785156 C 373.675781 300.101562 372.609375 301.164062 371.296875 301.164062 " fill-opacity="1" fill-rule="nonzero"></path><path fill="#ff6b00" d="M 367.175781 318.015625 L 317.15625 318.015625 C 315.84375 318.015625 314.777344 316.949219 314.777344 315.636719 C 314.777344 314.320312 315.84375 313.257812 317.15625 313.257812 L 367.175781 313.257812 C 368.488281 313.257812 369.554688 314.320312 369.554688 315.636719 C 369.554688 316.949219 368.488281 318.015625 367.175781 318.015625 " fill-opacity="1" fill-rule="nonzero"></path><path fill="#ff6b00" d="M 365.804688 333.296875 L 354.425781 333.296875 C 353.113281 333.296875 352.050781 332.230469 352.050781 330.917969 C 352.050781 329.601562 353.113281 328.539062 354.425781 328.539062 L 365.804688 328.539062 C 367.117188 328.539062 368.183594 329.601562 368.183594 330.917969 C 368.183594 332.230469 367.117188 333.296875 365.804688 333.296875 " fill-opacity="1" fill-rule="nonzero"></path><path fill="#ff6b00" d="M 363.84375 349.363281 L 301.855469 349.363281 C 300.542969 349.363281 299.476562 348.296875 299.476562 346.984375 C 299.476562 345.671875 300.542969 344.605469 301.855469 344.605469 L 363.84375 344.605469 C 365.15625 344.605469 366.222656 345.671875 366.222656 346.984375 C 366.222656 348.296875 365.15625 349.363281 363.84375 349.363281 " fill-opacity="1" fill-rule="nonzero"></path><path fill="#e0e0e0" d="M 250.660156 360.355469 L 378.890625 360.769531 L 371.21875 410.503906 L 241.335938 412.082031 L 250.660156 360.355469 " fill-opacity="1" fill-rule="nonzero"></path><path fill="#e0e0e0" d="M 290.875 347.929688 L 249.992188 347.929688 C 249.082031 347.929688 248.382812 347.207031 248.523438 346.40625 L 256.917969 297.90625 C 257.03125 297.261719 257.652344 296.785156 258.386719 296.785156 L 299.269531 296.785156 C 300.179688 296.785156 300.875 297.507812 300.738281 298.308594 L 292.34375 346.808594 C 292.230469 347.457031 291.605469 347.929688 290.875 347.929688 " fill-opacity="1" fill-rule="nonzero"></path><path fill="#1501fc" d="M 349.824219 285.503906 L 286.761719 285.503906 C 285.03125 285.503906 283.695312 283.988281 283.921875 282.273438 L 284.367188 278.886719 C 284.554688 277.464844 285.769531 276.402344 287.207031 276.402344 L 350.269531 276.402344 C 352 276.402344 353.332031 277.921875 353.105469 279.632812 L 352.660156 283.019531 C 352.472656 284.441406 351.261719 285.503906 349.824219 285.503906 " fill-opacity="1" fill-rule="nonzero"></path><path fill="#000000" d="M 370.875 420.253906 L 307.574219 420.253906 C 307.011719 420.253906 306.550781 419.800781 306.550781 419.238281 C 306.550781 418.671875 307.011719 418.21875 307.574219 418.21875 L 370.875 418.21875 C 375.914062 418.21875 380.164062 414.449219 380.765625 409.453125 L 396.90625 274.828125 C 397.242188 272.011719 396.351562 269.175781 394.46875 267.050781 C 392.578125 264.921875 389.859375 263.699219 387.015625 263.699219 L 255.824219 263.699219 C 250.785156 263.699219 246.53125 267.46875 245.933594 272.464844 L 234.746094 362.265625 C 234.675781 362.832031 234.171875 363.222656 233.609375 363.15625 C 233.050781 363.082031 232.652344 362.574219 232.722656 362.015625 L 243.910156 272.214844 C 244.632812 266.199219 249.753906 261.660156 255.824219 261.660156 L 387.015625 261.660156 C 390.449219 261.660156 393.71875 263.128906 395.992188 265.695312 C 398.265625 268.253906 399.335938 271.675781 398.929688 275.074219 L 382.789062 409.699219 C 382.066406 415.71875 376.945312 420.253906 370.875 420.253906 " fill-opacity="1" fill-rule="nonzero"></path><path fill="#ff6b00" d="M 299.507812 391.246094 L 306.296875 401.554688 C 306.296875 401.554688 273.542969 449.972656 206.496094 427.082031 L 218.421875 391.207031 C 218.421875 391.207031 245.972656 417.882812 299.507812 391.246094 " fill-opacity="1" fill-rule="nonzero"></path><path fill="#ffffff" d="M 299.226562 396.269531 C 298.8125 395.867188 297.914062 394.921875 297.894531 394.347656 C 297.820312 392.550781 298.40625 388.316406 298.933594 387.035156 C 299.628906 385.359375 300.761719 377.988281 302.109375 376.988281 C 303.453125 375.988281 304.878906 379.535156 304.644531 381.371094 C 304.40625 383.210938 303.289062 386.003906 304.148438 386.375 C 305.011719 386.746094 313.953125 376.238281 315.785156 376.675781 C 317.621094 377.113281 329.628906 377.960938 314.667969 395.742188 C 312.59375 398.210938 308.222656 400.957031 306.296875 401.554688 C 305.492188 401.804688 304.621094 401.589844 304.019531 401 L 299.226562 396.269531 " fill-opacity="1" fill-rule="nonzero"></path><path fill="#000000" d="M 299.941406 395.546875 L 304.738281 400.273438 C 305.070312 400.597656 305.550781 400.71875 305.996094 400.582031 C 307.738281 400.039062 311.910156 397.4375 313.886719 395.082031 C 320.90625 386.742188 321.542969 382.632812 320.835938 380.660156 C 320.074219 378.523438 317.367188 378.015625 316.066406 377.769531 C 315.90625 377.742188 315.769531 377.714844 315.652344 377.691406 C 314.617188 377.972656 311.085938 381.46875 309.171875 383.359375 C 305.519531 386.972656 304.710938 387.726562 303.746094 387.308594 C 302.371094 386.714844 302.796875 384.945312 303.25 383.070312 C 303.402344 382.433594 303.5625 381.773438 303.632812 381.242188 C 303.773438 380.144531 303.105469 378.367188 302.628906 377.90625 C 302.019531 378.726562 301.191406 382.273438 300.785156 384.023438 C 300.429688 385.558594 300.144531 386.773438 299.878906 387.425781 C 299.421875 388.523438 298.84375 392.640625 298.910156 394.304688 C 298.933594 394.355469 299.175781 394.792969 299.941406 395.546875 Z M 305.617188 402.675781 C 304.765625 402.675781 303.929688 402.34375 303.304688 401.722656 L 298.507812 396.996094 C 297.082031 395.585938 296.890625 394.835938 296.875 394.386719 C 296.800781 392.53125 297.375 388.136719 297.992188 386.644531 C 298.199219 386.148438 298.488281 384.894531 298.800781 383.5625 C 299.714844 379.628906 300.398438 376.988281 301.5 376.167969 C 302.121094 375.707031 302.867188 375.667969 303.539062 376.0625 C 304.949219 376.882812 305.878906 379.742188 305.65625 381.503906 C 305.570312 382.144531 305.398438 382.859375 305.230469 383.550781 C 305.164062 383.835938 305.074219 384.207031 305 384.5625 C 305.78125 383.847656 306.828125 382.8125 307.738281 381.910156 C 312.75 376.949219 314.648438 375.355469 316.023438 375.683594 C 316.128906 375.710938 316.269531 375.734375 316.441406 375.769531 C 317.984375 376.058594 321.601562 376.734375 322.761719 379.972656 C 324.0625 383.628906 321.671875 389 315.449219 396.398438 C 313.214844 399.054688 308.613281 401.902344 306.601562 402.527344 C 306.277344 402.625 305.945312 402.675781 305.617188 402.675781 " fill-opacity="1" fill-rule="nonzero"></path><path fill="#000000" d="M 254.867188 405.0625 C 242.652344 405.0625 224.894531 401.558594 217.605469 391.816406 C 217.269531 391.367188 217.363281 390.730469 217.8125 390.390625 C 218.261719 390.054688 218.902344 390.144531 219.238281 390.597656 C 228.113281 402.449219 254.730469 404.484375 263.59375 402.171875 C 264.136719 402.03125 264.695312 402.355469 264.835938 402.902344 C 264.980469 403.445312 264.652344 404.003906 264.109375 404.144531 C 261.863281 404.730469 258.628906 405.0625 254.867188 405.0625 " fill-opacity="1" fill-rule="nonzero"></path><path fill="#ffffff" d="M 603.199219 184.371094 L 595.675781 184.371094 C 589.585938 184.371094 584.386719 188.75 583.347656 194.75 L 578.148438 224.804688 L 609.3125 224.804688 L 609.3125 213.882812 L 603.199219 184.371094 " fill-opacity="1" fill-rule="nonzero"></path><path fill="#000000" d="M 579.363281 223.785156 L 608.292969 223.785156 L 608.292969 213.988281 L 602.371094 185.390625 L 595.679688 185.390625 C 590.066406 185.390625 585.308594 189.402344 584.355469 194.925781 Z M 609.3125 225.824219 L 578.148438 225.824219 C 577.851562 225.824219 577.5625 225.691406 577.371094 225.460938 C 577.175781 225.234375 577.097656 224.929688 577.148438 224.628906 L 582.34375 194.578125 C 583.46875 188.074219 589.078125 183.351562 595.679688 183.351562 L 603.203125 183.351562 C 603.683594 183.351562 604.101562 183.691406 604.199219 184.164062 L 610.3125 213.679688 C 610.324219 213.746094 610.332031 213.816406 610.332031 213.882812 L 610.332031 224.804688 C 610.332031 225.367188 609.875 225.824219 609.3125 225.824219 " fill-opacity="1" fill-rule="nonzero"></path><path fill="#1501fc" d="M 609.3125 224.804688 C 609.3125 226.078125 602.339844 227.109375 593.730469 227.109375 C 585.125 227.109375 578.148438 226.078125 578.148438 224.804688 C 578.148438 223.53125 585.125 222.5 593.730469 222.5 C 602.339844 222.5 609.3125 223.53125 609.3125 224.804688 " fill-opacity="1" fill-rule="nonzero"></path><path fill="#000000" d="M 608.425781 225.1875 L 608.429688 225.1875 Z M 579.878906 224.804688 C 581.722656 225.386719 586.363281 226.09375 593.730469 226.09375 C 601.101562 226.09375 605.746094 225.386719 607.585938 224.804688 C 605.746094 224.226562 601.101562 223.519531 593.730469 223.519531 C 586.363281 223.519531 581.722656 224.226562 579.878906 224.804688 Z M 593.730469 228.132812 C 589.523438 228.132812 585.558594 227.886719 582.566406 227.445312 C 578.703125 226.875 577.128906 226.109375 577.128906 224.804688 C 577.128906 223.484375 578.65625 222.746094 582.566406 222.164062 C 585.558594 221.722656 589.523438 221.480469 593.730469 221.480469 C 597.945312 221.480469 601.910156 221.722656 604.902344 222.164062 C 608.8125 222.746094 610.332031 223.484375 610.332031 224.804688 C 610.332031 226.109375 608.757812 226.875 604.902344 227.445312 C 601.910156 227.886719 597.945312 228.132812 593.730469 228.132812 " fill-opacity="1" fill-rule="nonzero"></path><path fill="#ff6b00" d="M 593.730469 223.855469 C 591.277344 223.855469 588.957031 223.941406 586.890625 224.085938 C 586.734375 226.886719 586.722656 229.921875 586.945312 233.167969 C 587.722656 244.488281 591.007812 253.53125 593.820312 259.550781 C 595.089844 257.089844 596.390625 254.15625 597.503906 250.773438 C 599.046875 246.101562 599.808594 241.851562 600.1875 238.363281 C 600.039062 240.089844 600.039062 242.535156 600.730469 245.339844 C 601.148438 247.046875 601.726562 248.484375 602.289062 249.625 C 603.277344 246.03125 604.1875 241.578125 604.550781 236.425781 C 604.859375 231.976562 604.691406 227.949219 604.3125 224.472656 C 601.535156 224.085938 597.816406 223.855469 593.730469 223.855469 " fill-opacity="1" fill-rule="nonzero"></path><path fill="#ffffff" d="M 643.425781 184.371094 L 650.945312 184.371094 C 657.035156 184.371094 662.238281 188.753906 663.273438 194.75 L 668.472656 224.804688 L 637.308594 224.804688 L 637.308594 213.886719 L 643.425781 184.371094 " fill-opacity="1" fill-rule="nonzero"></path><path fill="#000000" d="M 638.324219 223.785156 L 667.257812 223.785156 L 662.265625 194.929688 C 661.308594 189.40625 656.550781 185.394531 650.945312 185.394531 L 644.253906 185.394531 L 638.324219 213.988281 Z M 668.46875 225.824219 L 637.308594 225.824219 C 636.746094 225.824219 636.285156 225.371094 636.285156 224.808594 L 636.285156 213.886719 C 636.285156 213.816406 636.292969 213.75 636.304688 213.679688 L 642.421875 184.167969 C 642.523438 183.695312 642.9375 183.355469 643.421875 183.355469 L 650.945312 183.355469 C 657.546875 183.355469 663.152344 188.074219 664.28125 194.578125 L 669.472656 224.632812 C 669.527344 224.929688 669.445312 225.234375 669.246094 225.464844 C 669.054688 225.695312 668.769531 225.824219 668.46875 225.824219 " fill-opacity="1" fill-rule="nonzero"></path><path fill="#1501fc" d="M 637.308594 224.804688 C 637.308594 226.078125 644.28125 227.109375 652.886719 227.109375 C 661.496094 227.109375 668.472656 226.078125 668.472656 224.804688 C 668.472656 223.53125 661.496094 222.5 652.886719 222.5 C 644.28125 222.5 637.308594 223.53125 637.308594 224.804688 " fill-opacity="1" fill-rule="nonzero"></path><path fill="#000000" d="M 639.039062 224.804688 C 640.878906 225.382812 645.519531 226.089844 652.886719 226.089844 C 660.257812 226.089844 664.898438 225.382812 666.742188 224.804688 C 664.898438 224.226562 660.257812 223.519531 652.886719 223.519531 C 645.519531 223.519531 640.878906 224.226562 639.039062 224.804688 Z M 652.886719 228.132812 C 648.679688 228.132812 644.71875 227.890625 641.722656 227.445312 C 637.863281 226.875 636.289062 226.109375 636.289062 224.804688 C 636.289062 223.484375 637.8125 222.746094 641.722656 222.167969 C 644.71875 221.722656 648.679688 221.480469 652.886719 221.480469 C 657.101562 221.480469 661.066406 221.722656 664.054688 222.167969 C 667.96875 222.746094 669.492188 223.484375 669.492188 224.804688 C 669.492188 226.109375 667.917969 226.875 664.054688 227.445312 C 661.066406 227.890625 657.101562 228.132812 652.886719 228.132812 " fill-opacity="1" fill-rule="nonzero"></path><path fill="#ff6b00" d="M 652.886719 223.855469 C 655.34375 223.855469 657.664062 223.941406 659.726562 224.089844 C 659.886719 226.886719 659.898438 229.921875 659.675781 233.167969 C 658.894531 244.492188 655.613281 253.535156 652.792969 259.554688 C 651.527344 257.089844 650.230469 254.15625 649.117188 250.773438 C 647.578125 246.101562 646.808594 241.855469 646.429688 238.363281 C 646.578125 240.089844 646.582031 242.539062 645.890625 245.339844 C 645.46875 247.046875 644.890625 248.484375 644.332031 249.625 C 643.339844 246.03125 642.433594 241.578125 642.074219 236.425781 C 641.761719 231.976562 641.925781 227.949219 642.304688 224.46875 C 645.085938 224.089844 648.800781 223.855469 652.886719 223.855469 " fill-opacity="1" fill-rule="nonzero"></path><path fill="#ffffff" d="M 644.648438 139.082031 L 627.789062 106.375 C 625.914062 102.734375 620.710938 102.734375 618.835938 106.375 L 601.976562 139.082031 C 597.324219 148.113281 594.894531 158.128906 594.894531 168.289062 C 594.894531 175.074219 595.976562 181.820312 598.101562 188.269531 L 606.542969 215.304688 C 606.542969 216.675781 614.054688 217.785156 623.3125 217.785156 C 632.574219 217.785156 640.078125 216.675781 640.078125 215.304688 L 648.515625 188.269531 C 650.644531 181.820312 651.730469 175.074219 651.730469 168.289062 C 651.730469 158.128906 649.300781 148.113281 644.648438 139.082031 " fill-opacity="1" fill-rule="nonzero"></path><path fill="#000000" d="M 607.523438 215.011719 C 608.425781 215.660156 613.707031 216.769531 623.3125 216.769531 C 632.917969 216.769531 638.199219 215.660156 639.101562 215.011719 C 639.105469 215.007812 639.105469 215.007812 639.109375 215.003906 L 647.542969 187.960938 C 649.644531 181.59375 650.707031 174.980469 650.707031 168.285156 C 650.707031 158.339844 648.300781 148.398438 643.738281 139.546875 L 626.882812 106.839844 C 626.179688 105.476562 624.847656 104.664062 623.3125 104.664062 C 621.78125 104.664062 620.445312 105.476562 619.742188 106.839844 L 602.882812 139.546875 C 598.324219 148.398438 595.914062 158.332031 595.914062 168.285156 C 595.914062 174.976562 596.980469 181.59375 599.074219 187.945312 L 607.519531 215.003906 C 607.519531 215.007812 607.523438 215.007812 607.523438 215.011719 Z M 623.3125 218.808594 C 618.785156 218.808594 614.519531 218.542969 611.308594 218.070312 C 607.398438 217.488281 605.691406 216.738281 605.535156 215.5 L 597.128906 188.570312 C 594.972656 182.023438 593.875 175.195312 593.875 168.285156 C 593.875 158.007812 596.363281 147.753906 601.070312 138.617188 L 617.933594 105.910156 C 618.972656 103.882812 621.035156 102.625 623.3125 102.625 C 625.589844 102.625 627.65625 103.882812 628.695312 105.910156 L 645.554688 138.617188 C 650.261719 147.753906 652.75 158.011719 652.75 168.285156 C 652.75 175.199219 651.652344 182.027344 649.484375 188.585938 L 641.09375 215.5 C 640.933594 216.738281 639.222656 217.488281 635.320312 218.070312 C 632.105469 218.542969 627.839844 218.808594 623.3125 218.808594 " fill-opacity="1" fill-rule="nonzero"></path><path fill="#1501fc" d="M 638.890625 215.484375 C 638.890625 216.757812 631.914062 217.789062 623.308594 217.789062 C 614.703125 217.789062 607.726562 216.757812 607.726562 215.484375 C 607.726562 214.210938 614.703125 213.175781 623.308594 213.175781 C 631.914062 213.175781 638.890625 214.210938 638.890625 215.484375 " fill-opacity="1" fill-rule="nonzero"></path><path fill="#000000" d="M 638 215.867188 L 638.007812 215.867188 Z M 609.453125 215.488281 C 611.296875 216.066406 615.941406 216.773438 623.308594 216.773438 C 630.675781 216.773438 635.324219 216.066406 637.160156 215.488281 C 635.324219 214.90625 630.675781 214.199219 623.308594 214.199219 C 615.941406 214.199219 611.296875 214.90625 609.453125 215.488281 Z M 623.308594 218.808594 C 619.097656 218.808594 615.132812 218.566406 612.140625 218.125 C 608.234375 217.542969 606.707031 216.804688 606.707031 215.488281 C 606.707031 214.183594 608.28125 213.417969 612.140625 212.84375 C 615.132812 212.402344 619.097656 212.160156 623.308594 212.160156 C 627.519531 212.160156 631.484375 212.402344 634.480469 212.84375 C 638.335938 213.417969 639.910156 214.183594 639.910156 215.488281 C 639.910156 216.804688 638.386719 217.542969 634.476562 218.125 C 631.484375 218.566406 627.519531 218.808594 623.308594 218.808594 " fill-opacity="1" fill-rule="nonzero"></path><path fill="#ff6b00" d="M 633.035156 215.214844 C 630.328125 214.882812 626.847656 214.679688 623.050781 214.679688 C 619.179688 214.679688 615.636719 214.890625 612.910156 215.234375 C 612.207031 220.355469 611.835938 226.257812 612.199219 232.773438 C 613.246094 251.460938 619.824219 265.769531 624.519531 274.03125 C 624.574219 257.976562 625.324219 249.890625 626.757812 249.765625 C 627.691406 249.683594 628.910156 252.925781 630.410156 259.484375 C 632.347656 255.214844 634.378906 249.464844 635.347656 242.484375 C 636.914062 231.207031 635.03125 221.644531 633.035156 215.214844 " fill-opacity="1" fill-rule="nonzero"></path><path fill="#000000" d="M 639.585938 132.917969 C 639.488281 132.917969 639.386719 132.902344 639.289062 132.871094 C 637.523438 132.335938 635.734375 131.878906 633.972656 131.519531 C 633.417969 131.410156 633.0625 130.871094 633.175781 130.320312 C 633.289062 129.765625 633.828125 129.410156 634.378906 129.523438 C 636.207031 129.894531 638.058594 130.367188 639.882812 130.921875 C 640.417969 131.085938 640.726562 131.660156 640.5625 132.195312 C 640.425781 132.636719 640.027344 132.917969 639.585938 132.917969 " fill-opacity="1" fill-rule="nonzero"></path><path fill="#000000" d="M 607.035156 132.917969 C 606.601562 132.917969 606.199219 132.636719 606.058594 132.199219 C 605.898438 131.660156 606.199219 131.085938 606.738281 130.925781 C 613.238281 128.941406 619.835938 128.125 626.335938 128.480469 C 626.902344 128.515625 627.332031 128.996094 627.300781 129.554688 C 627.269531 130.117188 626.800781 130.53125 626.226562 130.519531 C 619.953125 130.167969 613.601562 130.960938 607.335938 132.875 C 607.238281 132.902344 607.132812 132.917969 607.035156 132.917969 " fill-opacity="1" fill-rule="nonzero"></path><path fill="#ff6b00" d="M 639.433594 165.488281 C 639.433594 174.394531 632.214844 181.613281 623.308594 181.613281 C 614.402344 181.613281 607.1875 174.394531 607.1875 165.488281 C 607.1875 156.582031 614.402344 149.367188 623.308594 149.367188 C 632.214844 149.367188 639.433594 156.582031 639.433594 165.488281 " fill-opacity="1" fill-rule="nonzero"></path><path fill="#000000" d="M 623.308594 150.382812 C 614.980469 150.382812 608.207031 157.164062 608.207031 165.488281 C 608.207031 173.820312 614.980469 180.59375 623.308594 180.59375 C 631.636719 180.59375 638.414062 173.820312 638.414062 165.488281 C 638.414062 157.164062 631.636719 150.382812 623.308594 150.382812 Z M 623.308594 182.632812 C 613.855469 182.632812 606.164062 174.945312 606.164062 165.488281 C 606.164062 156.039062 613.855469 148.34375 623.308594 148.34375 C 632.761719 148.34375 640.453125 156.039062 640.453125 165.488281 C 640.453125 174.945312 632.761719 182.632812 623.308594 182.632812 " fill-opacity="1" fill-rule="nonzero"></path><path fill="#000000" d="M 634.460938 149.917969 C 634.261719 149.917969 634.0625 149.863281 633.890625 149.746094 C 631.726562 148.285156 629.332031 147.3125 626.773438 146.835938 C 626.222656 146.734375 625.859375 146.203125 625.960938 145.648438 C 626.0625 145.09375 626.597656 144.726562 627.148438 144.832031 C 629.980469 145.355469 632.632812 146.441406 635.027344 148.050781 C 635.496094 148.371094 635.617188 149 635.304688 149.46875 C 635.109375 149.761719 634.785156 149.917969 634.460938 149.917969 Z M 611.5 150.386719 C 611.183594 150.386719 610.878906 150.242188 610.675781 149.96875 C 610.34375 149.511719 610.441406 148.875 610.898438 148.542969 C 613.226562 146.832031 615.832031 145.640625 618.636719 145.003906 C 619.195312 144.878906 619.734375 145.226562 619.859375 145.773438 C 619.984375 146.324219 619.640625 146.867188 619.09375 146.992188 C 616.558594 147.566406 614.203125 148.640625 612.105469 150.183594 C 611.921875 150.320312 611.710938 150.386719 611.5 150.386719 Z M 643.03125 163.265625 C 642.542969 163.265625 642.109375 162.910156 642.027344 162.40625 C 641.609375 159.839844 640.683594 157.429688 639.269531 155.238281 C 638.964844 154.765625 639.101562 154.132812 639.574219 153.828125 C 640.046875 153.523438 640.679688 153.660156 640.984375 154.132812 C 642.546875 156.5625 643.574219 159.234375 644.039062 162.078125 C 644.128906 162.636719 643.753906 163.160156 643.195312 163.253906 C 643.140625 163.257812 643.082031 163.265625 643.03125 163.265625 Z M 603.472656 164.066406 C 603.433594 164.066406 603.390625 164.0625 603.347656 164.058594 C 602.789062 163.992188 602.390625 163.480469 602.457031 162.921875 C 602.8125 160.058594 603.726562 157.34375 605.191406 154.855469 C 605.476562 154.371094 606.105469 154.210938 606.585938 154.492188 C 607.070312 154.78125 607.234375 155.40625 606.949219 155.890625 C 605.628906 158.132812 604.800781 160.582031 604.484375 163.167969 C 604.421875 163.683594 603.980469 164.066406 603.472656 164.066406 Z M 641.65625 174.4375 C 641.527344 174.4375 641.382812 174.410156 641.257812 174.355469 C 640.738281 174.132812 640.5 173.53125 640.726562 173.015625 C 641.753906 170.632812 642.277344 168.101562 642.277344 165.488281 C 642.277344 164.925781 642.734375 164.46875 643.296875 164.46875 C 643.859375 164.46875 644.3125 164.925781 644.3125 165.488281 C 644.3125 168.382812 643.738281 171.1875 642.59375 173.824219 C 642.425781 174.210938 642.054688 174.4375 641.65625 174.4375 Z M 607.941406 179.28125 C 607.644531 179.28125 607.359375 179.160156 607.15625 178.917969 C 605.308594 176.691406 603.953125 174.164062 603.148438 171.402344 C 602.992188 170.863281 603.296875 170.296875 603.839844 170.140625 C 604.378906 169.980469 604.949219 170.289062 605.105469 170.832031 C 605.839844 173.324219 607.054688 175.601562 608.722656 177.609375 C 609.085938 178.042969 609.027344 178.6875 608.59375 179.046875 C 608.402344 179.207031 608.171875 179.28125 607.941406 179.28125 Z M 630.105469 185.308594 C 629.683594 185.308594 629.292969 185.050781 629.144531 184.636719 C 628.957031 184.105469 629.226562 183.523438 629.753906 183.332031 C 632.199219 182.445312 634.398438 181.09375 636.308594 179.304688 C 636.710938 178.917969 637.359375 178.9375 637.746094 179.347656 C 638.132812 179.757812 638.109375 180.402344 637.703125 180.792969 C 635.59375 182.769531 633.160156 184.269531 630.449219 185.25 C 630.335938 185.289062 630.21875 185.308594 630.105469 185.308594 Z M 622.085938 186.457031 C 622.070312 186.457031 622.046875 186.457031 622.023438 186.457031 C 619.140625 186.28125 616.375 185.53125 613.804688 184.226562 C 613.304688 183.972656 613.105469 183.359375 613.363281 182.855469 C 613.617188 182.355469 614.230469 182.152344 614.730469 182.40625 C 617.050781 183.585938 619.542969 184.261719 622.148438 184.417969 C 622.710938 184.457031 623.136719 184.933594 623.101562 185.5 C 623.070312 186.039062 622.625 186.457031 622.085938 186.457031 " fill-opacity="1" fill-rule="nonzero"></path><path fill="#ffffff" d="M 620.015625 251.425781 C 619.457031 251.425781 618.996094 250.972656 618.996094 250.40625 L 618.996094 220.414062 C 618.996094 219.851562 619.457031 219.394531 620.015625 219.394531 C 620.582031 219.394531 621.035156 219.851562 621.035156 220.414062 L 621.035156 250.40625 C 621.035156 250.972656 620.582031 251.425781 620.015625 251.425781 " fill-opacity="1" fill-rule="nonzero"></path><path fill="#ffffff" d="M 623.308594 230.339844 C 622.746094 230.339844 622.289062 229.882812 622.289062 229.324219 L 622.289062 217.144531 C 622.289062 216.582031 622.746094 216.125 623.308594 216.125 C 623.871094 216.125 624.328125 216.582031 624.328125 217.144531 L 624.328125 229.324219 C 624.328125 229.882812 623.871094 230.339844 623.308594 230.339844 " fill-opacity="1" fill-rule="nonzero"></path><path fill="#ffffff" d="M 591.941406 244.664062 C 591.378906 244.664062 590.921875 244.207031 590.921875 243.644531 L 590.921875 226.050781 C 590.921875 225.488281 591.378906 225.03125 591.941406 225.03125 C 592.503906 225.03125 592.960938 225.488281 592.960938 226.050781 L 592.960938 243.644531 C 592.960938 244.207031 592.503906 244.664062 591.941406 244.664062 " fill-opacity="1" fill-rule="nonzero"></path><path fill="#ffffff" d="M 594.894531 239.25 C 594.328125 239.25 593.875 238.792969 593.875 238.230469 L 593.875 229.320312 C 593.875 228.757812 594.328125 228.300781 594.894531 228.300781 C 595.460938 228.300781 595.914062 228.757812 595.914062 229.320312 L 595.914062 238.230469 C 595.914062 238.792969 595.460938 239.25 594.894531 239.25 " fill-opacity="1" fill-rule="nonzero"></path><path fill="#ffffff" d="M 648.882812 233.160156 C 648.320312 233.160156 647.867188 232.703125 647.867188 232.140625 L 647.867188 227.066406 C 647.867188 226.503906 648.320312 226.046875 648.882812 226.046875 C 649.449219 226.046875 649.902344 226.503906 649.902344 227.066406 L 649.902344 232.140625 C 649.902344 232.703125 649.449219 233.160156 648.882812 233.160156 " fill-opacity="1" fill-rule="nonzero"></path><path fill="#ffffff" d="M 653.734375 248.722656 C 653.171875 248.722656 652.714844 248.261719 652.714844 247.699219 L 652.714844 229.324219 C 652.714844 228.757812 653.171875 228.300781 653.734375 228.300781 C 654.296875 228.300781 654.753906 228.757812 654.753906 229.324219 L 654.753906 247.699219 C 654.753906 248.261719 654.296875 248.722656 653.734375 248.722656 " fill-opacity="1" fill-rule="nonzero"></path><path fill="#1501fc" d="M 613.941406 170.679688 C 613.683594 170.679688 613.421875 170.582031 613.222656 170.382812 C 612.820312 169.980469 612.820312 169.335938 613.222656 168.9375 L 627.753906 154.40625 C 628.152344 154.007812 628.800781 154.007812 629.195312 154.40625 C 629.59375 154.804688 629.59375 155.449219 629.195312 155.847656 L 614.660156 170.382812 C 614.464844 170.582031 614.203125 170.679688 613.941406 170.679688 " fill-opacity="1" fill-rule="nonzero"></path><path fill="#1501fc" d="M 615.660156 177.128906 C 615.398438 177.128906 615.136719 177.03125 614.9375 176.832031 C 614.539062 176.433594 614.539062 175.789062 614.9375 175.390625 L 625.5625 164.765625 C 625.960938 164.367188 626.605469 164.367188 627.003906 164.765625 C 627.402344 165.164062 627.402344 165.808594 627.003906 166.207031 L 616.378906 176.832031 C 616.183594 177.03125 615.917969 177.128906 615.660156 177.128906 " fill-opacity="1" fill-rule="nonzero"></path><path fill="#ff6b00" d="M 632.609375 291.769531 C 632.074219 291.769531 631.621094 291.347656 631.589844 290.804688 C 631.445312 288.128906 631.269531 285.398438 631.074219 282.679688 C 631.03125 282.117188 631.453125 281.628906 632.015625 281.589844 C 632.574219 281.542969 633.070312 281.96875 633.109375 282.53125 C 633.308594 285.261719 633.480469 288.003906 633.628906 290.691406 C 633.660156 291.253906 633.230469 291.738281 632.667969 291.765625 C 632.644531 291.769531 632.628906 291.769531 632.609375 291.769531 Z M 633.1875 308.074219 C 632.632812 308.074219 632.179688 307.628906 632.167969 307.070312 C 632.128906 304.378906 632.054688 301.636719 631.957031 298.9375 C 631.941406 298.375 632.382812 297.898438 632.941406 297.878906 C 633.535156 297.851562 633.976562 298.300781 634 298.863281 C 634.09375 301.578125 634.164062 304.332031 634.210938 307.035156 C 634.21875 307.601562 633.769531 308.066406 633.207031 308.074219 C 633.199219 308.074219 633.195312 308.074219 633.1875 308.074219 Z M 633.128906 324.386719 C 633.117188 324.386719 633.109375 324.386719 633.097656 324.386719 C 632.539062 324.371094 632.089844 323.90625 632.105469 323.34375 C 632.171875 320.664062 632.207031 317.925781 632.21875 315.207031 C 632.222656 314.644531 632.675781 314.191406 633.238281 314.191406 C 633.242188 314.191406 633.242188 314.191406 633.246094 314.191406 C 633.804688 314.191406 634.257812 314.652344 634.257812 315.214844 C 634.25 317.945312 634.210938 320.699219 634.144531 323.394531 C 634.128906 323.949219 633.679688 324.386719 633.128906 324.386719 Z M 632.390625 340.683594 C 632.367188 340.683594 632.34375 340.683594 632.324219 340.683594 C 631.757812 340.644531 631.332031 340.15625 631.371094 339.597656 C 631.546875 336.910156 631.703125 334.175781 631.824219 331.472656 C 631.847656 330.910156 632.324219 330.441406 632.890625 330.5 C 633.449219 330.523438 633.886719 331 633.859375 331.5625 C 633.742188 334.285156 633.585938 337.03125 633.40625 339.730469 C 633.371094 340.273438 632.921875 340.683594 632.390625 340.683594 Z M 630.953125 356.933594 C 630.917969 356.933594 630.878906 356.929688 630.839844 356.925781 C 630.28125 356.867188 629.878906 356.359375 629.9375 355.800781 C 630.234375 353.125 630.507812 350.402344 630.742188 347.703125 C 630.792969 347.144531 631.292969 346.734375 631.851562 346.78125 C 632.410156 346.832031 632.828125 347.328125 632.777344 347.890625 C 632.539062 350.59375 632.265625 353.332031 631.96875 356.027344 C 631.910156 356.546875 631.46875 356.933594 630.953125 356.933594 Z M 628.789062 373.101562 C 628.738281 373.101562 628.679688 373.097656 628.628906 373.089844 C 628.070312 373 627.695312 372.484375 627.78125 371.929688 C 628.195312 369.265625 628.59375 366.558594 628.953125 363.875 C 629.027344 363.316406 629.542969 362.917969 630.097656 363 C 630.65625 363.074219 631.050781 363.589844 630.976562 364.148438 C 630.613281 366.84375 630.214844 369.570312 629.792969 372.246094 C 629.71875 372.746094 629.28125 373.101562 628.789062 373.101562 Z M 625.875 389.152344 C 625.800781 389.152344 625.734375 389.148438 625.664062 389.132812 C 625.113281 389.015625 624.757812 388.476562 624.871094 387.925781 C 625.414062 385.304688 625.933594 382.617188 626.421875 379.941406 C 626.523438 379.386719 627.054688 379.019531 627.605469 379.121094 C 628.164062 379.222656 628.53125 379.75 628.429688 380.304688 C 627.941406 383 627.414062 385.703125 626.871094 388.339844 C 626.769531 388.824219 626.34375 389.152344 625.875 389.152344 Z M 622.183594 405.042969 C 622.101562 405.042969 622.015625 405.035156 621.925781 405.011719 C 621.382812 404.871094 621.054688 404.3125 621.195312 403.769531 C 621.871094 401.148438 622.519531 398.492188 623.128906 395.871094 C 623.253906 395.320312 623.800781 394.980469 624.351562 395.109375 C 624.902344 395.234375 625.246094 395.785156 625.117188 396.332031 C 624.503906 398.96875 623.847656 401.644531 623.167969 404.277344 C 623.050781 404.738281 622.632812 405.042969 622.183594 405.042969 Z M 601.234375 413.898438 C 601.125 413.898438 601.015625 413.878906 600.902344 413.84375 C 598.285156 412.949219 595.726562 412.492188 593.3125 412.492188 L 593.238281 412.496094 C 592.675781 412.496094 592.21875 412.035156 592.21875 411.476562 C 592.21875 410.910156 592.675781 410.457031 593.238281 410.457031 L 593.285156 410.457031 C 593.285156 410.457031 593.285156 410.457031 593.289062 410.457031 C 595.957031 410.457031 598.726562 410.945312 601.5625 411.910156 C 602.097656 412.09375 602.382812 412.671875 602.203125 413.207031 C 602.054688 413.628906 601.660156 413.898438 601.234375 413.898438 Z M 578.253906 418.144531 C 577.960938 418.144531 577.667969 418.015625 577.46875 417.769531 C 577.109375 417.335938 577.171875 416.691406 577.609375 416.335938 C 579.773438 414.550781 582.238281 413.125 584.921875 412.105469 C 585.445312 411.90625 586.035156 412.164062 586.234375 412.691406 C 586.4375 413.21875 586.171875 413.808594 585.644531 414.007812 C 583.167969 414.953125 580.898438 416.265625 578.902344 417.910156 C 578.714844 418.066406 578.484375 418.144531 578.253906 418.144531 Z M 617.371094 420.625 C 617.25 420.625 617.128906 420.601562 617.007812 420.554688 C 616.484375 420.355469 616.21875 419.769531 616.421875 419.242188 C 617.34375 416.816406 618.222656 414.238281 619.03125 411.589844 C 619.195312 411.050781 619.769531 410.746094 620.304688 410.910156 C 620.84375 411.074219 621.148438 411.644531 620.984375 412.183594 C 620.160156 414.882812 619.265625 417.5 618.324219 419.96875 C 618.167969 420.375 617.78125 420.625 617.371094 420.625 Z M 615.140625 422.25 C 614.902344 422.25 614.664062 422.167969 614.46875 422 C 612.367188 420.1875 610.203125 418.59375 608.042969 417.261719 C 607.5625 416.96875 607.410156 416.339844 607.707031 415.859375 C 608.003906 415.378906 608.632812 415.230469 609.109375 415.523438 C 611.367188 416.910156 613.621094 418.574219 615.800781 420.457031 C 616.230469 420.824219 616.28125 421.46875 615.910156 421.898438 C 615.707031 422.128906 615.421875 422.25 615.140625 422.25 Z M 570.621094 432.054688 C 570.597656 432.054688 570.570312 432.054688 570.542969 432.050781 C 569.980469 432.007812 569.5625 431.519531 569.605469 430.957031 C 569.828125 428.121094 570.671875 425.382812 572.125 422.808594 C 572.402344 422.316406 573.023438 422.144531 573.515625 422.421875 C 574 422.695312 574.175781 423.320312 573.898438 423.808594 C 572.59375 426.121094 571.835938 428.578125 571.640625 431.113281 C 571.597656 431.648438 571.148438 432.054688 570.621094 432.054688 Z M 626.007812 434.371094 C 625.683594 434.371094 625.371094 434.222656 625.171875 433.9375 C 623.617188 431.730469 621.941406 429.605469 620.183594 427.636719 C 619.804688 427.21875 619.84375 426.570312 620.261719 426.195312 C 620.683594 425.820312 621.328125 425.859375 621.703125 426.277344 C 623.511719 428.308594 625.242188 430.492188 626.839844 432.765625 C 627.164062 433.226562 627.054688 433.863281 626.589844 434.1875 C 626.414062 434.3125 626.210938 434.371094 626.007812 434.371094 Z M 610.246094 435.269531 C 610.058594 435.269531 609.867188 435.21875 609.703125 435.113281 C 609.222656 434.816406 609.078125 434.1875 609.375 433.710938 C 610.722656 431.558594 612.019531 429.1875 613.242188 426.65625 C 613.484375 426.148438 614.09375 425.9375 614.601562 426.179688 C 615.109375 426.425781 615.320312 427.035156 615.078125 427.542969 C 613.828125 430.140625 612.492188 432.578125 611.105469 434.789062 C 610.914062 435.097656 610.578125 435.269531 610.246094 435.269531 Z M 576.1875 446.8125 C 575.957031 446.8125 575.722656 446.734375 575.53125 446.570312 C 574.128906 445.382812 572.960938 443.894531 572.046875 442.148438 C 571.570312 441.246094 571.160156 440.320312 570.824219 439.398438 C 570.628906 438.871094 570.898438 438.285156 571.425781 438.089844 C 571.957031 437.894531 572.542969 438.164062 572.738281 438.695312 C 573.042969 439.53125 573.421875 440.378906 573.851562 441.203125 C 574.640625 442.714844 575.648438 443.996094 576.847656 445.015625 C 577.28125 445.378906 577.332031 446.023438 576.96875 446.449219 C 576.769531 446.691406 576.480469 446.8125 576.1875 446.8125 Z M 599.339844 447.234375 C 599.007812 447.234375 598.675781 447.070312 598.484375 446.765625 C 598.179688 446.292969 598.3125 445.660156 598.789062 445.355469 C 600.753906 444.097656 602.722656 442.339844 604.652344 440.144531 C 605.023438 439.71875 605.664062 439.675781 606.089844 440.046875 C 606.515625 440.417969 606.554688 441.0625 606.183594 441.484375 C 604.128906 443.828125 602.015625 445.707031 599.890625 447.070312 C 599.722656 447.179688 599.53125 447.234375 599.339844 447.234375 Z M 633.746094 448.699219 C 633.34375 448.699219 632.957031 448.453125 632.800781 448.054688 C 631.839844 445.609375 630.695312 443.160156 629.402344 440.769531 C 629.132812 440.277344 629.316406 439.660156 629.8125 439.390625 C 630.304688 439.125 630.925781 439.304688 631.195312 439.800781 C 632.527344 442.261719 633.710938 444.785156 634.699219 447.304688 C 634.90625 447.832031 634.644531 448.421875 634.121094 448.628906 C 634.003906 448.675781 633.875 448.699219 633.746094 448.699219 Z M 587.082031 450.234375 C 585.804688 450.234375 584.582031 450.148438 583.4375 449.976562 C 582.878906 449.886719 582.496094 449.371094 582.578125 448.8125 C 582.667969 448.257812 583.1875 447.878906 583.742188 447.957031 C 586.027344 448.304688 588.667969 448.269531 591.574219 447.859375 C 592.128906 447.777344 592.648438 448.164062 592.726562 448.722656 C 592.804688 449.28125 592.417969 449.796875 591.859375 449.875 C 590.183594 450.113281 588.574219 450.234375 587.082031 450.234375 Z M 637.804688 464.46875 C 637.308594 464.46875 636.875 464.109375 636.796875 463.605469 C 636.390625 461.003906 635.859375 458.34375 635.21875 455.691406 C 635.085938 455.140625 635.421875 454.59375 635.972656 454.460938 C 636.519531 454.328125 637.070312 454.664062 637.203125 455.210938 C 637.855469 457.917969 638.398438 460.636719 638.816406 463.292969 C 638.902344 463.851562 638.519531 464.371094 637.960938 464.457031 C 637.90625 464.464844 637.855469 464.46875 637.804688 464.46875 Z M 638.820312 480.726562 C 638.808594 480.726562 638.796875 480.726562 638.785156 480.726562 C 638.222656 480.707031 637.78125 480.234375 637.800781 479.671875 C 637.835938 478.761719 637.851562 477.828125 637.851562 476.894531 C 637.851562 475.15625 637.792969 473.382812 637.679688 471.621094 C 637.644531 471.058594 638.070312 470.574219 638.632812 470.539062 C 639.226562 470.5 639.679688 470.929688 639.714844 471.488281 C 639.832031 473.296875 639.886719 475.113281 639.886719 476.894531 C 639.886719 477.851562 639.871094 478.8125 639.839844 479.742188 C 639.820312 480.292969 639.367188 480.726562 638.820312 480.726562 Z M 636.574219 496.835938 C 636.492188 496.835938 636.410156 496.824219 636.328125 496.804688 C 635.78125 496.667969 635.445312 496.113281 635.582031 495.570312 C 636.226562 492.980469 636.738281 490.328125 637.109375 487.679688 C 637.191406 487.121094 637.707031 486.734375 638.261719 486.808594 C 638.816406 486.886719 639.210938 487.402344 639.132812 487.960938 C 638.753906 490.679688 638.226562 493.40625 637.5625 496.058594 C 637.445312 496.523438 637.03125 496.835938 636.574219 496.835938 Z M 631.003906 512.125 C 630.855469 512.125 630.703125 512.089844 630.558594 512.023438 C 630.054688 511.777344 629.839844 511.167969 630.085938 510.65625 C 631.261719 508.238281 632.324219 505.746094 633.230469 503.253906 C 633.421875 502.722656 634.011719 502.453125 634.539062 502.644531 C 635.066406 502.839844 635.339844 503.421875 635.148438 503.953125 C 634.210938 506.511719 633.128906 509.066406 631.921875 511.550781 C 631.746094 511.910156 631.382812 512.125 631.003906 512.125 Z M 622.546875 526.03125 C 622.335938 526.03125 622.121094 525.96875 621.941406 525.835938 C 621.488281 525.5 621.390625 524.863281 621.726562 524.410156 C 623.339844 522.222656 624.851562 519.976562 626.226562 517.722656 C 626.519531 517.242188 627.148438 517.089844 627.628906 517.382812 C 628.113281 517.675781 628.257812 518.304688 627.96875 518.785156 C 626.5625 521.089844 625.015625 523.386719 623.367188 525.621094 C 623.167969 525.890625 622.859375 526.03125 622.546875 526.03125 Z M 611.867188 538.339844 C 611.601562 538.339844 611.339844 538.238281 611.140625 538.035156 C 610.742188 537.636719 610.746094 536.992188 611.144531 536.59375 C 613.082031 534.667969 614.945312 532.6875 616.675781 530.699219 C 617.042969 530.277344 617.683594 530.230469 618.109375 530.597656 C 618.535156 530.96875 618.578125 531.613281 618.210938 532.039062 C 616.445312 534.0625 614.558594 536.082031 612.582031 538.039062 C 612.382812 538.242188 612.125 538.339844 611.867188 538.339844 Z M 599.589844 549.070312 C 599.285156 549.070312 598.984375 548.933594 598.78125 548.675781 C 598.4375 548.230469 598.515625 547.589844 598.964844 547.246094 C 601.132812 545.566406 603.234375 543.839844 605.222656 542.105469 C 605.648438 541.734375 606.292969 541.777344 606.660156 542.203125 C 607.03125 542.628906 606.988281 543.273438 606.5625 543.640625 C 604.546875 545.402344 602.410156 547.15625 600.210938 548.859375 C 600.027344 549 599.808594 549.070312 599.589844 549.070312 Z M 586.195312 558.371094 C 585.859375 558.371094 585.527344 558.203125 585.332031 557.894531 C 585.035156 557.417969 585.179688 556.785156 585.65625 556.488281 C 587.980469 555.035156 590.257812 553.535156 592.433594 552.03125 C 592.890625 551.710938 593.527344 551.824219 593.847656 552.289062 C 594.171875 552.75 594.054688 553.386719 593.589844 553.707031 C 591.398438 555.230469 589.085938 556.75 586.734375 558.21875 C 586.570312 558.324219 586.378906 558.371094 586.195312 558.371094 Z M 572.003906 566.421875 C 571.632812 566.421875 571.277344 566.222656 571.097656 565.871094 C 570.835938 565.367188 571.035156 564.753906 571.535156 564.496094 C 573.964844 563.242188 576.371094 561.945312 578.683594 560.636719 C 579.171875 560.359375 579.792969 560.53125 580.070312 561.023438 C 580.347656 561.511719 580.175781 562.136719 579.6875 562.410156 C 577.355469 563.734375 574.921875 565.042969 572.46875 566.304688 C 572.320312 566.382812 572.160156 566.421875 572.003906 566.421875 Z M 557.222656 573.351562 C 556.824219 573.351562 556.449219 573.121094 556.28125 572.734375 C 556.0625 572.214844 556.300781 571.617188 556.820312 571.394531 C 559.316406 570.332031 561.8125 569.214844 564.242188 568.078125 C 564.746094 567.835938 565.355469 568.054688 565.597656 568.566406 C 565.835938 569.078125 565.617188 569.683594 565.105469 569.921875 C 562.65625 571.070312 560.140625 572.199219 557.621094 573.269531 C 557.488281 573.324219 557.355469 573.351562 557.222656 573.351562 Z M 543.714844 578.652344 C 543.304688 578.652344 542.910156 578.398438 542.761719 577.976562 C 542.570312 577.449219 542.84375 576.867188 543.371094 576.675781 C 545.351562 575.960938 547.347656 575.21875 549.292969 574.460938 C 549.816406 574.257812 550.410156 574.519531 550.613281 575.042969 C 550.816406 575.566406 550.554688 576.15625 550.03125 576.359375 C 548.070312 577.125 546.0625 577.871094 544.0625 578.59375 C 543.945312 578.632812 543.832031 578.652344 543.714844 578.652344 " fill-opacity="1" fill-rule="nonzero"></path></svg>